<svg xmlns="http://www.w3.org/2000/svg" viewBox="0 0 1024 259.722"><path d="M1024 229.547c0 16.654-13.521 30.175-30.175 30.175H30.182c-16.676 0-30.175-13.521-30.175-30.175V30.175C.007 13.521 13.506 0 30.182 0h963.643C1010.479 0 1024 13.521 1024 30.175v47.866z" fill="#0b61ab"/><path d="M0 78.03V30.185C0 13.51 13.521.011 30.175.011h963.643c16.676 0 30.175 13.5 30.175 30.175V78.03z" fill="#e42529"/><path d="M85.92 22.08c-3.245 0-6.21.705-8.96 2.08-2.727 1.33-5.012 3.189-7.04 5.6-2.028 2.411-3.696 5.095-4.8 8.16-1.082 3.132-1.6 6.357-1.6 9.76v1.92c0 6.152.872 11.308 2.72 15.68 1.825 4.327 4.482 7.712 7.84 9.92 2.518 1.656 5.334 2.62 8.48 3.04H63.52v155.2H231.2c23.707 0 43.04-19.493 43.04-43.2 0-23.595-19.148-42.882-42.72-43.04h2.56c18.975 0 34.56-15.585 34.56-34.56s-15.585-34.4-34.56-34.4h-53.6c2.378-.182 4.658-.528 6.88-1.28 2.952-.992 5.424-2.616 7.52-4.96 2.118-2.344 3.367-5.334 3.84-9.12.09-1.172.16-2.087.16-2.56 0-4.147-1.131-7.628-3.52-10.4-2.389-2.75-5.776-4.633-10.08-5.76-1.78-.338-3.497-.645-5.12-.96-1.645-.315-3.058-.67-4.32-1.12-1.24-.473-2.159-1.109-2.88-1.92-.721-.766-1.12-1.823-1.12-3.04 0-1.758.658-2.936 1.92-3.68 1.262-.789 2.884-1.28 4.8-1.28 2.14 0 3.955.563 5.6 1.6 1.645 1.06 2.842 2.66 3.36 4.8l10.08-3.52c-2.862-8.654-9.356-12.96-19.52-12.96-4.26.18-7.718 1.122-10.4 2.88-2.66 1.735-4.61 3.831-5.76 6.4-1.127 2.569-1.714 5.183-1.76 8 .18 1.285.32 2.386.32 3.04.54 3.583 1.812 6.152 3.84 8 2.006 1.848 4.64 3.259 7.84 4.16 3.178.856 6.001 1.632 8.48 2.24 2.479.676 4.266 1.548 5.28 2.72.766.901 1.12 2.006 1.12 3.2 0 1.623-.87 2.94-2.56 4-1.69 1.082-3.642 1.6-5.76 1.6-5.679-.293-9.138-2.975-10.4-8l-10.88 2.88c2.228 8.854 7.698 13.931 16.64 15.04H88.96c1.079-.155 2.245-.336 3.36-.64 2.208-.653 4.327-1.69 6.4-3.2 2.028-1.487 3.815-3.58 5.28-6.24 1.465-2.637 2.337-5.792 2.72-9.6l-11.68-.96c-.27 3.673-1.26 6.332-3.04 8-1.735 1.645-3.711 2.425-5.92 2.56-3.403 0-5.92-1.692-7.52-4.96-1.577-3.29-2.287-7.315-2.4-12.16.09-3.065.327-5.958.8-8.64.473-2.66 1.438-4.92 2.88-6.88 1.42-1.983 3.42-3.04 6.08-3.04 2.344 0 4.365 1.08 5.92 3.04 1.577 1.916 2.24 4.741 2.24 8.64l12.64-.96c-.338-5.003-1.447-9.165-3.52-12.32-2.073-3.155-4.66-5.345-7.68-6.72a23.223 23.223 0 00-9.6-2.08zm184 0c-4.26.18-7.718 1.122-10.4 2.88-2.66 1.735-4.61 3.831-5.76 6.4-1.127 2.569-1.692 5.183-1.76 8 .203 1.285.32 2.386.32 3.04.54 3.583 1.812 6.152 3.84 8 2.028 1.848 4.64 3.259 7.84 4.16 3.178.856 6.001 1.632 8.48 2.24 2.501.676 4.288 1.548 5.28 2.72.766.901 1.12 2.006 1.12 3.2 0 1.623-.847 2.94-2.56 4-1.69 1.082-3.482 1.6-5.6 1.6-5.679-.293-9.138-2.975-10.4-8l-11.04 2.88c2.524 10.118 9.487 15.2 20.8 15.2 3.2 0 6.35-.448 9.28-1.44 2.93-.992 5.424-2.616 7.52-4.96 2.118-2.344 3.39-5.334 3.84-9.12.09-1.172.16-2.087.16-2.56 0-4.147-1.291-7.628-3.68-10.4-2.389-2.75-5.776-4.633-10.08-5.76-1.758-.338-3.475-.645-5.12-.96-1.623-.315-2.898-.67-4.16-1.12-1.262-.473-2.319-1.109-3.04-1.92-.721-.766-1.12-1.823-1.12-3.04 0-1.758.658-2.936 1.92-3.68 1.262-.789 2.862-1.28 4.8-1.28 2.14 0 4.092.563 5.76 1.6 1.645 1.06 2.682 2.66 3.2 4.8l10.08-3.52c-2.84-8.654-9.334-12.96-19.52-12.96zm-143.36.64L110.24 77.6h10.4l3.2-11.2h16.48l3.2 11.2h12.64l-15.84-54.88zm92 0L202.08 77.6h10.4l3.2-11.2h16.48l3.2 11.2h12.8l-16-54.88zm-86.4 14.24l5.44 19.36h-10.88zm92 0l5.28 19.36h-10.88zm111.52 41.28l-68 155.2h60.64l7.36-16.32h63.52l7.36 16.32h60.64l-68-155.2zm138.56 0v155.2h54.4V200.8h98.72v32.64h54.4V78.24h-54.4v93.12h-98.72V78.24zm223.2 0v155.2h54.4V78.24zm129.92 0l-67.84 155.2H820l7.36-16.32h63.68l7.36 16.32h60.64l-68-155.2zm-708.32 32.48h84.32c6.332 0 11.52 5.21 11.52 11.52 0 6.333-5.188 11.52-11.52 11.52h-84.32zm248.32 35.52l17.12 39.84H350.4zm491.84 0l16.96 39.84h-33.92zM119.04 166.4h83.36c8.947 0 16.32 7.213 16.32 16.16 0 8.97-7.373 16.32-16.32 16.32h-83.36z" fill="#fff"/></svg>