<?xml version="1.0"?>
<svg xmlns="http://www.w3.org/2000/svg" id="Capa_1" enable-background="new 0 0 512 512" height="512px" viewBox="0 0 512 512" width="512px" class=""><g><g><g><g fill="#ca2c2c"><path d="m180.293 190.621s-76.461 111.867-89.211 276.476c-.594 7.668 8.127 12.47 14.294 7.875l31.11-23.181c3.155-2.351 7.473-2.369 10.648-.045l32.869 24.065c5.955 4.36 14.327.059 14.254-7.32-.55-55.129 1.993-220.771 50.621-270.132z" data-original="#CA2C2C" class="" style="fill:#CEA79E" data-old_color="#CA2C2C"/><path d="m331.707 190.621s76.461 111.867 89.211 276.476c.594 7.668-8.127 12.47-14.294 7.875l-31.11-23.181c-3.155-2.351-7.473-2.369-10.648-.045l-32.869 24.065c-5.954 4.36-14.327.059-14.254-7.32.55-55.129-1.993-220.771-50.621-270.132z" data-original="#CA2C2C" class="" style="fill:#CEA79E" data-old_color="#CA2C2C"/></g><g fill="#a72b2b"><path d="m242.913 200.461c-46.73 51.77-49.191 213.66-48.656 268.03.075 7.383-8.304 11.674-14.253 7.319l-11.942-8.742c-.482-55.751 2.044-213.607 44.097-272.631l30.754 3.692 1.969.235c-.663.674-1.327 1.369-1.969 2.097z" data-original="#A72B2B" class="" style="fill:#CEA79E" data-old_color="#A72B2B"/><path d="m406.622 474.976-11.974-8.924c-11.76-148.6-75.343-254.002-87.2-272.524l24.258-2.911s76.456 111.875 89.211 276.484c.59 7.661-8.131 12.465-14.295 7.875z" data-original="#A72B2B" class="" style="fill:#CEA79E" data-old_color="#A72B2B"/></g></g><g><path d="m120.576 38.84c-37.065-13.02-78.028 3.736-95.695 38.825-7.336 14.57-13.432 29.802-17.842 45.516-9.366 33.37-9.404 69.24 0 102.749 4.41 15.713 10.506 30.945 17.842 45.516 17.668 35.089 58.63 51.845 95.695 38.825 61.653-21.657 118.397-76.669 118.397-76.669v-59.047-59.047c0 .001-56.744-55.011-118.397-76.668z" fill="#e94444" data-original="#E94444" class="active-path" style="fill:#DCC2BC" data-old_color="#e94444"/><path d="m391.424 38.84c37.065-13.02 78.028 3.736 95.695 38.825 7.336 14.57 13.432 29.802 17.842 45.516 9.365 33.37 9.404 69.24 0 102.749-4.41 15.713-10.506 30.945-17.842 45.516-17.668 35.089-58.63 51.845-95.695 38.825-61.653-21.657-118.397-76.669-118.397-76.669v-59.047-59.047c0 .001 56.744-55.011 118.397-76.668z" fill="#e94444" data-original="#E94444" class="active-path" style="fill:#DCC2BC" data-old_color="#e94444"/><path d="m504.957 225.926c-4.406 15.713-10.506 30.954-17.839 45.517-15.395 30.595-48.506 47.242-81.308 42.395 24.576-3.605 46.873-18.877 58.714-42.395 7.333-14.563 13.433-29.804 17.839-45.517 9.408-33.501 9.366-69.375 0-102.742-4.406-15.713-10.506-30.944-17.839-45.517-11.841-23.519-34.138-38.79-58.714-42.395 32.803-4.848 65.914 11.8 81.308 42.395 7.333 14.573 13.433 29.804 17.839 45.517 9.367 33.368 9.408 69.241 0 102.742z" fill="#d83131" data-original="#D83131" class="" data-old_color="#d83131" style="fill:#CEA79E"/><g><g><g><path d="m211.782 171.599c-6.203 0-20.932-2.187-47.232-17.72-3.566-2.106-4.75-6.706-2.644-10.272 2.107-3.566 6.708-4.749 10.272-2.644 28.207 16.66 40.138 15.619 40.255 15.606-.201.021-.298.048-.298.048l2.762 14.743c-.529.1-1.552.239-3.115.239z" fill="#ca2c2c" data-original="#CA2C2C" class="" style="fill:#CEA79E" data-old_color="#ca2c2c"/></g><g><path d="m168.37 209.19c-2.565 0-5.065-1.317-6.465-3.687-2.106-3.566-.923-8.166 2.644-10.272 32.931-19.448 47.719-17.978 50.348-17.481l-2.762 14.743s.097.026.298.048c-.122-.015-12.055-1.049-40.255 15.606-1.197.707-2.511 1.043-3.808 1.043z" fill="#ca2c2c" data-original="#CA2C2C" class="" style="fill:#CEA79E" data-old_color="#ca2c2c"/></g></g><g><g><path d="m300.218 171.599c-1.564 0-2.586-.139-3.115-.238l2.762-14.743s-.097-.026-.298-.048c.117.013 12.055 1.049 40.255-15.606 3.566-2.105 8.166-.923 10.272 2.644 2.106 3.566.923 8.166-2.644 10.272-26.298 15.531-41.027 17.719-47.232 17.719z" fill="#ca2c2c" data-original="#CA2C2C" class="" style="fill:#CEA79E" data-old_color="#ca2c2c"/></g><g><path d="m343.63 209.19c-1.297 0-2.61-.336-3.808-1.043-28.206-16.659-40.135-15.618-40.255-15.606.201-.021.298-.048.298-.048l-2.762-14.743c2.631-.491 17.419-1.966 50.348 17.481 3.566 2.106 4.75 6.706 2.644 10.272-1.4 2.37-3.9 3.687-6.465 3.687z" fill="#ca2c2c" data-original="#CA2C2C" class="" style="fill:#CEA79E" data-old_color="#ca2c2c"/></g></g></g><path d="m304.153 174.556c0-16.463-2.368-33.888-4.817-47.512-3.029-16.847-17.45-29.316-34.561-29.796-5.357-.15-12.193-.15-17.55 0-17.111.48-31.531 12.949-34.561 29.796-2.45 13.625-4.817 31.05-4.817 47.512 0 16.463 2.368 33.888 4.817 47.512 3.029 16.847 17.45 29.316 34.561 29.796 5.357.15 12.193.15 17.55 0 17.111-.48 31.531-12.949 34.561-29.796 2.449-13.625 4.817-31.05 4.817-47.512z" fill="#ca2c2c" data-original="#CA2C2C" class="" style="fill:#CEA79E" data-old_color="#ca2c2c"/><path d="m304.153 174.555c0 16.468-2.365 33.889-4.815 47.511-3.028 16.854-17.453 29.32-34.563 29.801-5.361.15-12.188.15-17.549 0-1.37-.043-2.729-.15-4.066-.342 15.291-2.172 27.715-13.954 30.497-29.459 2.45-13.622 4.815-31.042 4.815-47.511 0-16.457-2.365-33.889-4.815-47.511-2.782-15.495-15.206-27.287-30.497-29.459 1.338-.193 2.697-.3 4.066-.342 5.361-.15 12.188-.15 17.549 0 17.11.482 31.535 12.959 34.563 29.801 2.45 13.622 4.815 31.053 4.815 47.511z" fill="#a72b2b" data-original="#A72B2B" class="" style="fill:#CEA79E" data-old_color="#a72b2b"/></g></g></g> </svg>
