<svg viewBox="0 0 512.119 512.119" xmlns="http://www.w3.org/2000/svg"><path d="M507.916 143.979l-46.011-52.367V34.301C461.905 15.388 446.517 0 427.604 0h-11.118c-4.143 0-7.5 3.358-7.5 7.5s3.357 7.5 7.5 7.5h11.118c10.643 0 19.301 8.659 19.301 19.301V53.91H65.694V34.301C65.694 23.659 74.352 15 84.995 15h299.529c4.143 0 7.5-3.358 7.5-7.5s-3.357-7.5-7.5-7.5H84.995C66.082 0 50.694 15.388 50.694 34.301v55.91L4.178 144.003a14.122 14.122 0 00-3.939 9.825v30.301c0 23.041 18.745 41.785 41.785 41.785h2.379c14.36 0 27.049-7.283 34.573-18.347 7.78 11.082 20.647 18.347 35.185 18.347 14.717 0 27.726-7.44 35.475-18.752 7.749 11.312 20.757 18.752 35.475 18.752 14.717 0 27.725-7.44 35.474-18.752 7.749 11.312 20.757 18.752 35.475 18.752s27.726-7.44 35.475-18.752c7.749 11.312 20.757 18.752 35.475 18.752 14.717 0 27.725-7.44 35.474-18.752 7.749 11.312 20.757 18.752 35.475 18.752 14.539 0 27.408-7.262 35.188-18.344 7.525 11.063 20.212 18.344 34.571 18.344h2.379c23.04 0 41.785-18.745 41.785-41.785v-30.301a14.133 14.133 0 00-3.966-9.849zM61.613 100.517l46.968.17s-36.024 40.178-36.252 40.542H26.408zm67.066.242l39.199.142-24.609 40.328H92.331zm56.733.206l40.544.147-12.013 40.118h-53.101zm56.185.203l30.105.109 11.409 39.952h-53.51zm57.115 40.061l-11.393-39.896 40.58.147 23.949 39.749zm70.647 0l-23.911-39.685 39.432.143 35.437 39.542zm70.94 0c-.226-.362-35.212-39.469-35.212-39.469l45.914.166 34.532 39.303zm6.606-72.319v18.001l-381.211-1.38V68.91zM71.188 184.129c0 14.77-12.016 26.785-26.785 26.785h-2.379c-14.77 0-26.785-12.016-26.785-26.785v-27.9h55.949zm42.974 26.785c-15.425 0-27.974-12.549-27.974-27.974v-26.711h55.948v26.711c0 15.425-12.549 27.974-27.974 27.974zm70.949 0c-15.425 0-27.975-12.549-27.975-27.974v-26.711h55.948v26.711c.001 15.425-12.548 27.974-27.973 27.974zm70.948 0c-15.425 0-27.975-12.549-27.975-27.974v-26.711h55.949v26.711c.001 15.425-12.549 27.974-27.974 27.974zm70.949 0c-15.425 0-27.974-12.549-27.974-27.974v-26.711h55.948v26.711c0 15.425-12.55 27.974-27.974 27.974zm70.949 0c-15.425 0-27.975-12.549-27.975-27.974v-26.711h55.949v26.711c0 15.425-12.549 27.974-27.974 27.974zm72.137 0h-2.379c-14.769 0-26.784-12.016-26.784-26.785v-27.9h55.948v27.9c.001 14.769-12.015 26.785-26.785 26.785z"/><path d="M93.863 26.644c-4.143 0-7.5 3.358-7.5 7.5s3.357 7.5 7.5 7.5h3.36c4.143 0 7.5-3.358 7.5-7.5s-3.357-7.5-7.5-7.5zM129.594 26.644c-4.143 0-7.5 3.358-7.5 7.5s3.357 7.5 7.5 7.5h3.36c4.143 0 7.5-3.358 7.5-7.5s-3.357-7.5-7.5-7.5zM165.326 26.644c-4.143 0-7.5 3.358-7.5 7.5s3.357 7.5 7.5 7.5h3.361c4.143 0 7.5-3.358 7.5-7.5s-3.357-7.5-7.5-7.5zM454.405 237.302a7.5 7.5 0 00-7.5 7.5v212.882h-30.419c-4.143 0-7.5 3.358-7.5 7.5s3.357 7.5 7.5 7.5h30.419v8.828c0 8.605-7.001 15.606-15.605 15.606h-350c-8.604 0-15.605-7.001-15.605-15.606v-8.828h318.83c4.143 0 7.5-3.358 7.5-7.5s-3.357-7.5-7.5-7.5H65.694V244.802c0-4.142-3.357-7.5-7.5-7.5s-7.5 3.358-7.5 7.5v236.71c0 16.876 13.729 30.606 30.605 30.606h350c16.876 0 30.605-13.73 30.605-30.606v-236.71a7.498 7.498 0 00-7.499-7.5z"/><path d="M108.391 376.379a7.5 7.5 0 00-7.5 7.5v14.548c0 11.091 9.023 20.115 20.115 20.115h96.916c11.091 0 20.114-9.023 20.114-20.115v-85.625c0-11.091-9.023-20.115-20.114-20.115h-96.916c-11.092 0-20.115 9.023-20.115 20.115v39.115c0 4.142 3.357 7.5 7.5 7.5s7.5-3.358 7.5-7.5v-39.115a5.121 5.121 0 015.115-5.115h96.916a5.12 5.12 0 015.114 5.115v85.625a5.12 5.12 0 01-5.114 5.115h-96.916a5.12 5.12 0 01-5.115-5.115v-14.548a7.5 7.5 0 00-7.5-7.5zM346.617 330.363c-1.54-4.375-5.361-7.405-9.973-7.907l-61.868-6.735a11.9 11.9 0 00-9.737 3.426 11.896 11.896 0 00-3.43 9.739l6.735 61.87c.503 4.611 3.533 8.432 7.908 9.972 4.377 1.541 9.131.459 12.411-2.82l11.003-11.004 23.349 23.349a14.733 14.733 0 0010.484 4.343c3.961 0 7.685-1.542 10.484-4.343l12.157-12.156c5.78-5.781 5.78-15.188 0-20.97l-23.349-23.348 11.004-11.004c3.281-3.28 4.362-8.036 2.822-12.412zm-1.204 57.248L333.5 399.524l-28.529-28.53a7.5 7.5 0 00-10.608 0l-11.797 11.797-5.634-51.747 51.747 5.633-11.797 11.797a7.5 7.5 0 000 10.606z"/></svg>