<svg xmlns="http://www.w3.org/2000/svg" viewBox="0 0 534 513"><path fill-rule="evenodd" opacity=".431" fill="#C1C1CD" d="M533.298 511.205c-.163.676-.56 1.229-1.443 1.452-.788.03-1.425-.452-1.914-1.163a14.59 14.59 0 01-.931-1.538c-1.824-3.53-3.588-7.093-5.461-10.598-2.792-5.223-5.69-10.39-8.483-15.613-3.074-5.752-6.229-11.468-9.072-17.334-2.617-5.403-5.267-10.783-8.308-15.955-2.739-4.66-5.83-9.093-9.359-13.199-5.133-5.973-10.241-11.97-15.48-17.85-3.041-3.412-6.233-6.7-9.503-9.895-9.456-9.236-19.533-17.769-29.902-25.954-6.123-4.834-12.29-9.621-19.174-13.372a12.799 12.799 0 01-1.143-.718 42.536 42.536 0 00-7.06-3.945 19.814 19.814 0 01-3.336-1.859c-4.867-3.416-10.272-5.906-15.339-8.977-.637-.386-1.342-.672-2.04-.944-6.029-2.352-11.843-5.107-17.06-9-.3-.223-.62-.425-.949-.604-3.888-2.115-7.695-4.358-11.277-7.291-.798.214-1.68.36-2.491.685-2.408.963-4.404 2.54-6.203 4.381-2.632 2.693-4.905 5.676-6.941 8.832-2.684 4.159-5.362 8.325-7.924 12.56-7.666 12.669-16.981 23.986-27.902 33.962-11.474 10.48-24.355 18.968-38.034 26.26-8.666 4.619-17.415 9.083-26.135 13.6-1.797.931-3.62 1.813-5.455 2.665-.8.37-1.661.608-2.495.907l-1.044-.921c-.169-1.544.54-2.735 1.205-3.885 1.912-3.312 3.822-6.631 5.883-9.851a8860.78 8860.78 0 0122.545-34.995c4.119-6.369 8.573-12.482 13.658-18.134 7.739-8.6 16.466-15.957 26.591-21.604 10.455-5.83 21.428-10.391 33.002-13.498 5.311-1.425 10.692-2.312 16.193-2.454.371-.009.739-.122 1.524-.26l-19.559-7.756c-.668.223-1.389.411-2.066.701-1.998.854-4 1.704-5.958 2.643-1.416.679-2.851 1.375-4.127 2.275-6.25 4.407-12.447 8.887-18.667 13.334-2.439 1.744-4.828 3.566-7.348 5.185-11.489 7.382-23.974 12.649-36.84 17.059-8.606 2.951-17.526 4.66-26.46 6.239-3.614.639-7.295.891-10.925 1.451-6.914 1.066-13.9 1.078-20.854 1.53-4.882.317-9.703.882-14.405 2.282-1.005.299-2.019.571-3.033.842-.608.163-1.192.203-1.621-.71.293-.37.597-.861 1.001-1.248 4.708-4.516 9.411-9.039 14.156-13.517 11.501-10.851 23.969-20.41 37.788-28.148 5.379-3.011 10.992-5.505 16.894-7.3 7.41-2.252 15.01-3.64 22.666-4.688 5.867-.803 11.762-1.406 17.649-2.054 7.694-.845 15.407-.91 23.129-.462 2.446.142 4.892.279 7.339.418-2.659-.958-5.274-2.074-7.988-2.835-7.792-2.184-15.565-4.438-23.472-6.207-7.238-1.62-14.424-3.473-21.614-5.299-3.41-.865-6.84-1.728-10.144-2.915-4.168-1.498-8.347-2.903-12.655-3.943-1.601-.387-3.106-.424-4.611.232-3.569 1.554-7.14 3.106-10.699 4.683-1.437.636-2.824 1.386-4.272 1.995-5.732 2.41-11.485 4.768-17.217 7.175a110.637 110.637 0 01-19.692 6.208c-3.371.722-6.719 1.571-10.112 2.169-5.388.95-10.784 1.904-16.214 2.548-5.503.653-11.044 1.062-16.58 1.337-5.158.257-10.342.435-15.497.218-7.182-.302-14.343-1.078-21.521-1.514-6.353-.387-12.718-.667-19.043.458-.309.055-.667-.171-.999-.265-.178-1.198.619-1.496 1.348-1.887 3.763-2.018 7.561-3.977 11.265-6.1 12.901-7.396 26.186-13.936 40.408-18.436 6.435-2.036 12.93-3.868 19.593-4.96 4.952-.811 9.943-1.426 14.936-1.933 3.873-.394 7.773-.579 11.665-.692 7.203-.208 14.373.387 21.533 1.1.783.078 1.574.076 2.361.106-.713-.33-1.41-.706-2.147-.969-8.894-3.178-17.802-6.314-26.687-9.517-2.465-.889-4.93-1.825-7.28-2.975-5.318-2.603-10.562-5.358-15.845-8.034-.526-.267-1.091-.53-1.664-.617-3.361-.509-6.759-.627-10.046.266-4.333 1.177-8.641 2.485-12.875 3.977-6.503 2.291-12.959 4.672-19.75 6.045-4.343.877-8.704 1.49-13.106 1.97-5.449.594-10.907.937-16.374.939-15.384.003-30.458-2.151-45.176-6.728-2.707-.843-5.52-1.365-8.305-1.929-1.087-.219-2.234-.129-3.351-.219-.191-.016-.367-.229-.631-.405l.111-1.055c1.575-.499 3.065-.956 4.545-1.444 2.844-.939 5.666-1.95 8.528-2.834 7.244-2.235 14.669-3.731 22.106-5.117 12.839-2.393 25.77-3.948 38.867-3.908 7.571.023 15.128.169 22.659 1.02 8.361.945 16.516 2.942 24.704 4.776.698.157 1.409.256 2.115.378-.403-.279-.787-.593-1.22-.813-5.224-2.659-10.618-4.904-16.263-6.506-4.41-1.252-8.678-2.877-12.867-4.728-1.714-.757-3.426-1.546-5.202-2.129-6.207-2.035-12.213-4.576-18.236-7.078-4.092-1.7-8.09-3.588-11.925-5.805-4.869-2.816-9.784-5.562-14.548-8.546-7.625-4.776-15.342-9.427-22.543-14.84-5.037-3.787-10.092-7.54-15.367-10.991-.744-.488-1.407-1.105-2.075-1.7-.135-.12-.118-.41-.199-.73l.754-.662c.389.063.683.103.974.16 8.385 1.632 16.752 3.368 25.159 4.877 11.125 1.996 21.828 5.328 32.245 9.659 13.579 5.646 25.52 13.877 36.767 23.212.683.567 1.335 1.171 1.984 1.743.694-.107 1.288-.174 1.873-.292 6.098-1.233 12.196-2.462 18.289-3.719 2.716-.56 5.413-1.213 8.129-1.767 4.406-.9 8.794-1.932 13.238-2.58 5.334-.778 10.701-1.293 16.112-1.454 9.532-.283 19.032.072 28.505 1.035a438.438 438.438 0 0140.451 6.031c3.663.722 7.318 1.485 10.977 2.228-2.376-1.403-4.706-2.891-7.136-4.194a38664.724 38664.724 0 00-59.928-32.062c-1.321-.705-2.825-1.128-4.024-1.989-2.753-1.976-5.73-3.55-8.635-5.263-2.981-1.757-6.113-2.285-9.502-1.903-2.604.293-5.228.612-7.839.579-2.564-.033-5.089.046-7.612.477a272.567 272.567 0 01-37.129 3.728c-6.888.223-13.795.264-20.682.045-8.845-.281-17.632-1.2-26.313-3.108-19.041-4.183-37.304-10.749-55.405-17.837-.339-.132-.641-.358-1.041-.587l.116-1.334c.598-.119 1.101-.215 1.603-.321 1.684-.355 3.394-.617 5.045-1.086 8.298-2.354 16.653-4.49 25.122-6.118 11.578-2.225 23.251-3.648 35.068-3.789 10.039-.119 19.899.992 29.542 3.844 5.177 1.531 10.364 3.031 15.526 4.612 4.373 1.34 8.721 2.759 13.071 4.175 6.203 2.019 12.397 4.067 18.596 6.1.259.085.529.138.794.206-.381-.548-.865-.864-1.352-1.176-10.111-6.471-20.259-12.888-29.806-20.189-1.276-.976-2.632-1.688-4.206-2.04-2.192-.49-4.353-1.132-6.554-1.572-3.38-.677-6.789-1.211-10.176-1.852-13.702-2.593-27.259-5.877-40.984-8.38-10.709-1.953-21.212-4.833-31.187-9.323-6.566-2.956-13.087-6.015-19.592-9.102-2.165-1.027-4.237-2.255-6.32-3.447-4.158-2.379-7.765-5.674-12.315-7.415-.599-.229-.918-.767-.62-1.465.464-.667 1.181-.565 1.841-.605 4.638-.283 9.276-.591 13.917-.831 9.774-.505 19.485.231 29.13 1.77 11.429 1.823 22.239 5.599 32.508 10.892 10.536 5.43 21.004 10.989 31.509 16.479.7.365 1.454.625 2.185.929-.43-.474-.832-.981-1.306-1.407-1.449-1.305-2.957-2.546-4.393-3.865a7278.697 7278.697 0 01-23.666-21.805c-2.144-1.987-4.166-4.105-6.269-6.137a16.191 16.191 0 00-1.906-1.556c-1.898-1.34-3.914-2.531-5.715-3.989-3.961-3.211-7.786-6.591-11.727-9.828-7.867-6.462-14.634-13.995-21.073-21.817-7.28-8.844-13.181-18.577-17.934-29.002-1.493-3.275-3.037-6.525-4.52-9.804-2.842-6.284-5.834-12.508-8.433-18.891C4.777 15.283 2.71 9.008.468 2.804.217 2.111-.15 1.396.499.71c.589-.406 1.156-.28 1.67.104.418.312.795.682 1.176 1.042 2.671 2.525 5.318 5.075 8.011 7.575 4.565 4.24 9.074 8.546 13.081 13.318 8.689 10.347 16.854 21.097 24.079 32.527 1.999 3.164 3.87 6.434 5.497 9.802a452.387 452.387 0 018.214 18.004c3.708 8.618 7.601 17.134 12.49 25.162 2.582 4.241 5.416 8.257 9.139 11.626 9.122 8.255 18.097 16.672 27.273 24.864 3.987 3.56 8.316 6.736 12.494 10.081-.397-.565-.764-1.158-1.216-1.674-3.41-3.892-6.87-7.74-10.255-11.652-3.304-3.821-6.039-8.008-8.041-12.675a55.356 55.356 0 00-3.144-6.216c-2.86-4.874-5.058-10.014-6.828-15.379-1.909-5.784-3.643-11.585-4.125-17.692-.118-1.494-.204-2.993-.373-4.481-.721-6.351-.753-12.715-.238-19.074.622-7.692 1.486-15.361 1.355-23.105-.082-4.867.309-9.743-.467-14.589-.071-.44-.125-.921-.019-1.341.114-.45.426-.849.747-1.449.592.414 1.065.635 1.379.994.389.445.643 1.007.962 1.514 2.868 4.571 5.725 9.149 8.614 13.706 1.323 2.09 2.795 4.09 4.054 6.216 6.018 10.165 10.99 20.808 14.359 32.154 1.603 5.398 2.866 10.866 3.373 16.501.746 8.303.811 16.623.651 24.941-.166 8.677.608 17.229 2.876 25.612.604 2.233 1.483 4.397 2.316 6.561.459 1.193 1.151 2.243 2.255 3.017.596.417 1.124 1.027 1.489 1.661 1.565 2.725 3.834 4.777 6.246 6.696 1.757 1.399 3.592 2.7 5.333 4.117 3.073 2.502 5.92 5.305 9.584 7.001.402.186.733.519 1.11.765 3.194 2.093 6.391 4.183 9.59 6.27.187.122.399.208.591.324 2.953 1.769 5.958 3.46 8.843 5.334 2.88 1.871 6.019 3.364 8.56 5.745.215.201.504.323.762.477 4.572 2.725 9.142 5.454 13.719 8.172a43.05 43.05 0 002.365 1.301c4.538 2.321 9.063 4.669 13.631 6.931 2.816 1.394 5.699 2.652 8.552 3.97l.484.219-.355-.394c-2.016-1.551-4.006-3.138-6.054-4.646-5.133-3.779-10.255-7.553-14.97-11.877-6.364-5.835-11.118-12.725-14.464-20.646-1.225-2.899-2.526-5.766-3.837-8.628-2.093-4.574-4.008-9.216-5.201-14.115a664.308 664.308 0 01-3.102-13.358c-1.398-6.3-1.454-12.659-.426-18.999 1.585-9.77 3.052-19.543 3.152-29.47.036-3.523.298-7.059-1.336-10.365-.077-.157.052-.416.097-.705.913-.356 1.424.25 1.873.804 1.933 2.386 3.99 4.693 5.71 7.226 3.832 5.644 7.484 11.41 11.22 17.118 5.332 8.146 8.909 16.976 10.36 26.623 1.048 6.97 2.15 13.936 2.999 20.932 1.165 9.606 2.448 19.191 4.129 28.721.247 1.401.543 2.799.917 4.171 1.62 5.946 3.989 11.621 6.372 17.288 1.38 3.283 3.385 6.159 5.767 8.799 2.176 2.412 4.709 4.345 7.356 6.218 5.761 4.074 11.606 8.003 17.794 11.393 6.707 3.674 13.459 7.268 20.207 10.868 2.447 1.306 4.933 2.541 7.414 3.782.513.257 1.081.402 1.625.595-.243-.352-.446-.744-.745-1.039-7.627-7.523-13.9-16.109-19.693-25.071a22.11 22.11 0 01-1.215-2.154c-3.039-6.106-6.188-12.153-8.6-18.559-1.801-4.781-3.541-9.554-4.387-14.619a50.133 50.133 0 00-1.428-6.133c-1.687-5.623-2.875-11.335-3.427-17.18-.353-3.733-.807-7.458-1.059-11.198-.292-4.354.178-8.687.754-13.001.505-3.789 1.286-7.555 1.556-11.359.763-10.705 3.266-21.194 3.824-31.919.03-.561.302-1.109.493-1.774l1.598.143c.153.547.342.967.379 1.401.156 1.828.792 3.507 1.574 5.133 1.038 2.163 2.081 4.326 3.204 6.445 5.169 9.756 9.686 19.796 13.233 30.261 2.291 6.76 4.291 13.598 5.074 20.718.812 7.384 1.106 14.798 1.118 22.229.016 9.818-.382 19.643.317 29.451.224 3.138.429 6.305 1.036 9.38.797 4.039 1.879 8.03 3.025 11.987 1.955 6.754 5.264 12.888 8.978 18.817.608.971 1.384 1.702 2.475 2.188 5 2.23 9.997 4.469 14.936 6.83 2.224 1.063 4.363 2.332 6.443 3.659 3.351 2.138 6.634 4.381 9.922 6.617 5.022 3.415 10.027 6.856 15.033 10.295 2.549 1.751 5.085 3.52 7.627 5.281-.805-.901-1.558-1.859-2.443-2.674-4.967-4.576-9.854-9.232-14.438-14.196-3.007-3.257-5.874-6.642-8.085-10.498a253.93 253.93 0 01-6.319-11.672c-3.182-6.285-6.46-12.528-8.003-19.508-1.432-6.475-2.548-12.975-1.981-19.621.548-6.423 1.27-12.832 1.973-19.24.661-6.037 1.42-12.062 2.089-18.098.331-2.986.418-5.982.032-8.978-.101-.791-.321-1.648.473-2.212 1.057-.106 1.341.645 1.69 1.293 2.882 5.348 5.852 10.65 8.615 16.059 4.912 9.616 8.445 19.714 9.915 30.451a167.02 167.02 0 011.217 12.085c.604 9.538 2.219 18.916 4.233 28.237.777 3.593 1.489 7.203 2.417 10.757.737 2.823 1.606 5.633 2.691 8.338 1.304 3.25 3.002 6.341 4.345 9.577 2.01 4.839 4.901 9.095 8.208 13.105a21.362 21.362 0 005.596 4.806c2.377 1.42 4.661 3.017 6.876 4.683 5.883 4.425 11.297 9.415 16.579 14.519 4.981 4.811 10.46 8.998 15.779 13.388 7.059 5.827 14.199 11.561 20.224 18.521.75.867 1.667 1.59 2.515 2.373-.243-.5-.439-1.035-.763-1.476a635.25 635.25 0 00-6.716-9.024c-4.317-5.669-8.551-11.379-12.247-17.497-5.968-9.877-9.968-20.46-12.122-31.771-1.219-6.4-.956-12.841-.548-19.284.434-6.845 2.042-13.482 3.659-20.113a1054.157 1054.157 0 009.565-43.033c.427-2.132.913-4.253 1.429-6.364.227-.933.445-1.938 1.577-2.285 1.12-.022 1.822.675 2.332 1.518.579.957 1.09 1.971 1.503 3.011 1.662 4.181 3.349 8.354 4.887 12.581 2.128 5.847 4.333 11.674 5.816 17.733 1.052 4.298 2.18 8.58 3.109 12.905 1.407 6.554 2.179 13.203 1.55 19.897-1.051 11.195-2.201 22.383-3.515 33.55-1.368 11.619-1.541 23.194.641 34.722.989 5.231 2.243 10.411 3.363 15.617.636 2.956 2.101 5.418 4.298 7.481 1.093 1.026 2.107 2.136 3.178 3.187 9.377 9.199 18.279 18.853 27.082 28.59 4.774 5.281 9.074 10.987 13.686 16.417 4.472 5.266 8.662 10.741 12.665 16.368 5.521 7.761 11.308 15.335 16.265 23.488 1.051 1.728 2.145 3.441 3.352 5.062 4.893 6.57 8.887 13.716 13.301 20.592.647 1.006 1.156 2.101 1.72 3.16 3.385 6.353 6.862 12.659 10.119 19.078 2.679 5.278 5.095 10.69 7.625 16.044.096.203.16.421.247.628.712 1.688.439 3.39.033 5.077zM339.872 346.242v-.002l.205-.685c-8.53 4.927-15.212 12.408-23.333 17.949a.239.239 0 01-.239.029l-.11.09c-2.541 2.099-5.092 4.196-7.505 6.437-9.06 8.411-18.068 16.878-27.084 25.337-.424.398-.735.916-1.098 1.377-.427.284-.9.518-1.274.859-3.297 3.015-6.58 6.044-9.854 9.083-.295.273-.515.628-.762.954.43-.224.884-.416 1.273-.697 3.899-2.817 7.212-6.264 10.45-9.789.094-.102.118-.267.175-.403.202-.092.442-.143.601-.284 3.242-2.874 6.47-5.764 9.711-8.639 2.067-1.834 4.043-3.793 6.249-5.441 3.601-2.691 6.954-5.655 10.29-8.653a81.625 81.625 0 014.084-3.46c4.385-3.852 8.896-7.58 13.322-11.369 4.133-3.537 8.246-7.094 12.409-10.592.257-.414.627-.717 1.099-.921.243-.203.489-.402.732-.605l-.174.026.833-.601zm-.959 1.977a458.066 458.066 0 01-4.625 4.076 7.423 7.423 0 01-1.867 1.608c-.435.376-.871.752-1.307 1.126-.34.423-.747.76-1.203 1.037-1.135.971-2.273 1.939-3.41 2.908-1.383 1.279-2.765 2.56-4.173 3.812-1.288 1.145-2.562 2.322-3.956 3.328-.686.494-1.358 1.004-2.035 1.509-2.705 2.268-5.44 4.497-8.233 6.637a107.97 107.97 0 00-2.942 2.684c-.814.775-1.629 1.569-2.542 2.217-6.194 4.402-11.552 9.778-17.245 14.762a138.461 138.461 0 00-7.034 6.629c-2.487 2.507-5.056 4.903-7.887 7.023-1.619 1.212-3.179 2.507-4.739 3.796-6.185 5.11-12.269 10.336-18.208 15.73-.242.22-.421.51-.619.778.735-.433 1.501-.821 2.187-1.321 10.598-7.72 20.782-15.975 31.083-24.078 7.597-5.976 14.986-12.2 22.314-18.499 1.646-1.415 3.369-2.742 5.077-4.084 3.894-3.058 7.602-6.316 11-9.928a98.314 98.314 0 015.111-5.058c4.589-4.215 8.753-8.835 12.895-13.471.882-.987 1.62-2.104 2.358-3.221zm-88.294 72.411c6.47-6.563 12.879-13.187 19.391-19.709 8.897-8.912 18.32-17.263 27.648-25.715 4.775-4.327 9.527-8.68 14.376-12.922 2.815-2.463 5.765-4.777 8.72-7.072 4.613-3.584 9.286-7.092 13.922-10.647.261-.201.44-.51.648-.78-.87.358-1.763.669-2.6 1.093a102.91 102.91 0 00-14.715 9.035c-7.226 5.335-14.564 10.526-21.412 16.352a138.728 138.728 0 00-6.982 6.34c-4.768 4.655-9.539 9.312-14.157 14.115-3.109 3.235-5.975 6.704-8.916 10.098-3.137 3.621-6.18 7.325-9.365 10.902-3.132 3.517-6.148 7.117-8.881 10.953.778-.677 1.601-1.31 2.323-2.043zm-3.1 4.4c-.01.008-.022.008-.032.018a6.56 6.56 0 00-.029.026c-.122.093-.261.169-.377.27-.247.218-.465.469-.699.702.36-.323.718-.648 1.076-.972l.061-.044a.36.36 0 01.276-.072c.17-.162.336-.328.506-.49-.275.171-.525.37-.782.562zm74.614-56.343c.075-.057.152-.114.227-.173l.092-.175-.319.348zm-38.203 42.181c10.095-6.793 19.536-14.358 27.625-23.508 4.367-4.939 8.482-10.08 12.281-15.47.339-.48.579-1.029.835-1.567-2.374 2.525-4.757 5.041-7.192 7.514a474.962 474.962 0 00-3.894 4 85.7 85.7 0 00-2.781 3.425c-2.056 2.691-4.265 5.236-6.767 7.511-6.766 6.151-13.368 12.493-20.718 17.973-.267.2-.476.479-.704.732.445-.193.919-.343 1.315-.61zm-15.668 9.493c8.983-5.978 17.76-12.234 25.712-19.573 3.082-2.844 6.214-5.635 9.311-8.462a52.587 52.587 0 001.56-1.497c.005-.008.001-.016.007-.023 3.009-3.902 6.236-7.601 9.567-11.22.585-.642 1.17-1.284 1.772-1.911.17-.182.338-.367.509-.549 3.48-3.698 7.112-7.201 10.797-10.673 2.077-3.321 4.085-6.685 6.118-10.034-.289.241-.587.474-.875.716-.663.714-1.318 1.437-1.978 2.154-1.439 1.678-2.863 3.368-4.319 5.03-.514.588-1.162 1.058-1.75 1.581-.385 1.227-1.208 2.066-2.338 2.635-.412.587-.759 1.237-1.253 1.744-8.874 9.116-17.447 18.521-26.606 27.365-6.533 6.309-13.56 11.997-20.83 17.405-3.241 2.412-6.561 4.716-9.836 7.083-.449.325-.847.719-1.265 1.087 2.086-.577 3.927-1.68 5.697-2.858zm-32.101 14.578c.473-.5.911-1.018.896-1.766l-.896 1.766zm1.411.761c.766-.221 1.583-.344 2.281-.698 2.604-1.32 5.203-2.655 7.734-4.107 3.572-2.049 7.057-4.25 10.624-6.307 4.747-2.738 9.209-5.889 13.583-9.174 6.471-4.859 13.033-9.618 18.855-15.261 4.661-4.517 9.385-8.975 13.948-13.592.006-.008.001-.016.008-.024a987.586 987.586 0 0112.243-13.466c-.46.478-.922.954-1.383 1.431-3.197 2.596-6.413 5.171-9.588 7.795-3.236 2.674-6.4 5.434-9.651 8.09-5.688 4.647-11.369 9.307-17.142 13.847-8.426 6.625-16.918 13.165-25.41 19.706-2.374 1.829-4.839 3.541-7.278 5.284-.479.343-1.032.584-1.552.872l-.004-.022-.322.233a105.322 105.322 0 01-4.234 3.431.415.415 0 01-.228.083c-.021.017-.04.038-.061.055-.785.636-1.613 1.219-2.423 1.824zm7.265-5.643l-.004-.02-.03.025a.347.347 0 00.034-.005zm80.309-87.851c-7.708 2.725-15.189 5.958-22.336 9.945-8.981 5.01-16.881 11.375-23.804 18.958-2.02 2.213-3.956 4.503-5.891 6.791-.506.598-.878 1.31-1.305 1.975.232-.136.479-.256.674-.432 5.283-4.768 10.56-9.542 15.837-14.317 2.506-2.268 5.218-4.243 8.095-6.029 3.242-2.013 6.512-4.024 9.528-6.351 5.466-4.215 11.544-7.174 17.97-9.53 1.397-.512 2.776-1.075 4.061-1.922-.943.303-1.895.582-2.829.912zm8.811-2.355a3812.44 3812.44 0 00-16.667 6.712c-2.584 1.047-4.936 2.504-7.233 4.073-4.949 3.383-9.96 6.678-14.883 10.098a72.662 72.662 0 00-6.195 4.838c-4.188 3.64-8.341 7.323-12.413 11.091-5.354 4.955-10.225 10.313-14.062 16.59-4.34 7.103-8.894 14.075-13.336 21.116-.363.575-.602 1.229-.885 1.854.506-.577 1.042-1.133 1.497-1.748 4.935-6.676 9.845-13.369 14.793-20.035.045-.061.108-.11.156-.169 5.075-7.507 11.155-14.174 17.853-20.211.085-.114.189-.208.31-.283.286-.256.566-.519.854-.772.116-.166.264-.298.45-.386.215-.188.435-.372.652-.559.147-.282.382-.47.682-.585.213-.18.422-.364.636-.544.312-.478.729-.83 1.253-1.053.295-.243.595-.48.892-.721a4.877 4.877 0 011.723-1.394c.372-.294.746-.584 1.12-.875.505-.66 1.163-1.13 1.921-1.473.202-.153.399-.309.601-.461.02-.056.039-.113.079-.141a924.005 924.005 0 017.447-5.322.553.553 0 01.233-.081c.313-.213.629-.42.942-.632a2.68 2.68 0 01.514-.442c.578-.357 1.158-.71 1.736-1.068a338.237 338.237 0 0111.469-7.219c1.803-1.089 3.611-2.2 5.434-3.294 5.278-3.292 10.773-6.114 16.535-8.401-1.372.492-2.755.957-4.108 1.497zm7.236-1.675c-3.668 1.61-7.321 3.257-10.981 4.884-2.728 1.371-5.432 2.785-8.082 4.288-1.235.754-2.464 1.511-3.693 2.247-5.271 3.16-10.489 6.414-15.578 9.861-8.467 5.734-16.596 12.029-23.889 19.208-1.008 1.091-2.008 2.19-3.025 3.273a2.493 2.493 0 01-.556.416c-.306.327-.603.662-.905.992-.219.383-.446.758-.752 1.051-1.055 1.013-1.744 2.391-2.976 3.225-.346.417-.706.823-1.046 1.245a15.669 15.669 0 01-1.899 2.459 109.672 109.672 0 00-3.86 5.349c-.083.124-.207.151-.329.143-5.454 7.448-10.945 14.869-16.329 22.367-2.621 3.651-4.976 7.492-7.434 11.258-.273.42-.431.915-.639 1.377.45-.358.966-.662 1.33-1.092 2.032-2.401 4.142-4.749 6.007-7.277a168.819 168.819 0 0111.72-14.217c2.791-3.027 5.392-6.234 7.978-9.442 3.723-4.62 7.767-8.932 12.029-13.052a643.544 643.544 0 008.813-8.673 145.215 145.215 0 0114.506-12.759c4.28-3.283 8.639-6.462 12.937-9.721 7.857-5.958 16.325-10.855 25.347-14.823 2.115-.93 4.129-2.087 6.393-3.244-1.982-.258-3.332-.113-5.087.657zm.245 2.864c-2.821 1.841-5.616 3.731-8.325 5.734-4.399 3.253-8.743 6.582-13.064 9.94-2.248 1.746-4.463 3.546-6.576 5.452-9.076 8.186-18.108 16.42-27.156 24.636-7.496 6.807-14.837 13.772-21.858 21.074-3.845 4-7.84 7.856-11.753 11.79-.5.503-.922 1.082-1.377 1.63 1.879-.756 3.436-1.998 4.894-3.354 11.954-11.118 23.887-22.259 35.84-33.378 5.209-4.845 10.421-9.688 15.691-14.467 2.605-2.363 5.314-4.615 8.031-6.85 2.82-2.321 5.67-4.606 8.514-6.9 4.536-3.924 9.136-7.792 14.289-10.791.447-.31.888-.628 1.336-.937.292-.202.687-.257 1.035-.38v.002c1.53-1.39 3.064-2.774 4.584-4.175.26-.24.455-.55.935-1.142-2.05.533-3.625 1.193-5.04 2.116zM64.602 99.286l-.521-.739.063.405.262.367.196-.033zm-.323.912l-.019-.151-.428-.6-.056.009.503.742zM25.717 57.746c5.624 10.039 12.289 19.318 20.123 27.78 4.641 5.01 9.35 9.925 14.634 14.26 1.013.83 2.112 1.555 3.175 2.324-.216-.355-.399-.741-.674-1.043-3.432-3.764-6.793-7.598-10.347-11.245-4.394-4.509-8.94-8.872-12.702-13.949-5.709-7.704-11.538-15.325-16.435-23.596-.386-.652-.914-1.219-1.391-1.817 1.195 2.435 2.294 4.923 3.617 7.286zM63.726 99.41l-.023-.143-8.393-11.76c-3.508-4.914-7.112-9.775-10.505-14.769-1.508-2.219-2.909-4.515-4.05-6.943-.053-.075-.117-.142-.166-.219-7.057-11.033-14.154-22.041-21.117-33.133-3.141-5.003-6.002-10.182-9.004-15.272-.512-.869-1.092-1.697-1.644-2.542.131.548.207 1.12.431 1.626 2.982 6.71 5.887 13.458 9.026 20.094 1.925 4.069 4.488 7.797 7.25 11.356 3.681 4.744 7.153 9.625 10.179 14.817.755 1.295 1.581 2.549 2.419 3.792 4.103 6.092 8.294 12.127 12.313 18.275 3.565 5.453 8.202 9.924 12.747 14.493.144.144.353.223.537.328zM2.965 6.113c.712 2.199 1.39 4.41 2.143 6.596 3.303 9.584 7.536 18.765 12.157 27.773a44.461 44.461 0 002.12 3.705c6.759 10.534 13.603 21.009 21.144 31.011 2.714 3.6 5.731 6.928 8.887 10.137.239.243.541.424.821.626-.362-.698-.673-1.432-1.111-2.078-3.574-5.272-7.185-10.519-10.762-15.788-1.473-2.17-2.853-4.402-4.341-6.561-2.933-4.256-5.818-8.549-8.895-12.7a95.075 95.075 0 01-10.707-18.418C10.984 22.599 7.379 14.856 3.84 7.084c-.171-.376-.408-.721-.875-.971zm5.873 4.848a34.09 34.09 0 00-1.276-1.568c-.14-.164-.332-.284-.858-.722.327.782.449 1.223.678 1.596 5.333 8.68 10.125 17.677 15.677 26.234 5.927 9.137 11.593 18.443 17.342 27.695a.21.21 0 01.14.122c.062.144.135.282.199.425l.205.33c.374.602.624 1.282.907 1.942.237.446.471.893.723 1.331-.019-.094-.05-.183-.062-.282.733.527 1.139 1.249 1.265 2.136-.068-.051-.121-.11-.184-.164.278.441.567.874.855 1.309-.039-.125-.092-.241-.123-.371a5.73 5.73 0 011.799 2.812c1.252 1.763 2.546 3.496 3.789 5.236a18077.144 18077.144 0 016.387 8.944l4.23 5.924 3.293 4.614.209-.031c-2.057-4.658-4.389-9.181-7.198-13.421-8.358-12.618-16.559-25.331-24.218-38.389-2.161-3.683-4.454-7.288-6.624-10.965-5.113-8.667-11.111-16.717-17.155-24.737zm54.466 77.39c-3.611-8.549-7.011-17.215-11.903-25.14-4.403-7.132-8.848-14.258-13.681-21.099-5.485-7.764-11.471-15.169-18.223-21.905-.549-.548-1.193-1.002-1.799-1.492.343.528.661 1.075 1.045 1.571 4.27 5.515 8.609 10.977 12.805 16.548 1.981 2.63 3.739 5.434 5.52 8.209C44.93 57.286 52.56 69.67 59.584 82.418c.976 1.773 1.907 3.571 2.891 5.34.309.557.711 1.063 1.076 1.589-.072-.336-.116-.684-.247-.996zM68.3 99.583c-4.812-8.559-9.57-17.15-14.424-25.685C47.573 62.813 40.517 52.192 33.7 41.424a18.883 18.883 0 00-1.02-1.482 8175.42 8175.42 0 00-16.428-21.129c-.42-.538-.982-.966-1.492-1.435.311.537.589 1.098.963 1.587 4.012 5.25 7.642 10.753 11.053 16.408 5.538 9.179 11.089 18.35 16.637 27.523.427.705.855 1.411 1.304 2.102 4.252 6.535 8.544 13.044 12.745 19.612 1.533 2.396 3.004 4.855 4.234 7.415 1.996 4.153 4.313 8.049 7.536 11.38 1.012 1.047 1.886 2.228 3.082 3.152-1.339-2.324-2.699-4.636-4.014-6.974zm-57.336 25.26c5.791 4.36 12.096 7.792 18.864 10.366 6.375 2.425 12.743 4.871 19.164 7.17 3.877 1.389 7.829 2.577 11.782 3.74 3.593 1.058 7.236 1.945 10.85 2.935 4.268 1.17 8.569 2.176 12.948 2.842 1.332.203 2.655.48 3.972.771 8.269 1.83 16.527 3.707 24.804 5.498 3.793.821 7.621 1.484 11.433 2.218l.079-.459c-3.675-1.005-7.327-2.107-11.03-2.995-10.128-2.429-20.275-4.779-30.419-7.139-10.38-2.413-20.563-5.485-30.598-9.065-7.695-2.745-15.404-5.454-23.099-8.203-1.41-.504-2.812-1.053-4.159-1.704-3.845-1.862-7.646-3.816-11.496-5.668-1.196-.576-2.492-.942-3.942-1.095.281.264.541.558.847.788zm83.374 26.293c-11.038-4.1-22.155-7.972-33.376-11.545a168.861 168.861 0 01-8.051-2.81c-9.399-3.528-19.048-6.247-28.699-8.96-1.458-.41-2.944-.717-4.419-1.066 3.094 1.884 6.318 3.516 9.729 4.738 10.074 3.611 20.144 7.237 30.259 10.731a187.074 187.074 0 0013.317 4.034c6.292 1.662 12.638 3.12 18.969 4.633.735.176 1.51.18 2.271.245zM11 123.037c.587.238 1.162.52 1.767.696 9.714 2.813 19.441 5.578 29.141 8.433 2.944.866 5.815 1.977 8.724 2.965 6.951 2.36 13.912 4.691 20.855 7.077a4259.769 4259.769 0 0125.267 8.767 126.007 126.007 0 0013.368 3.898c2.622.606 5.215 1.335 7.951 1.837-.387-.231-.753-.509-1.162-.685-6.816-2.928-13.637-5.841-20.455-8.763-3.305-1.417-6.61-2.835-9.902-4.283a2.876 2.876 0 01-.568-.357c-.527-.197-1.049-.406-1.577-.601a1.91 1.91 0 01-.337-.094c-.193-.075-.382-.16-.575-.236-14.411-5.284-29.141-9.657-44.028-13.393-4.407-1.106-8.834-2.111-13.256-3.146-.883-.17-1.764-.357-2.649-.518-3.744-.678-7.533-1.111-11.305-1.631-.41-.057-.838.011-1.259.034zm64.33 8.408c-10.283-4.743-21.063-7.712-32.312-8.984-.205-.024-.42.035-1.1.1 1.003.251 1.555.414 2.118.525 10.818 2.147 21.33 5.362 31.7 9.078.38.136.79.191 1.189.273-.527-.341-1.031-.732-1.595-.992zm-.804 1.227c-14.84-5.6-30.086-9.74-45.968-11.042-3.494-.287-7.033-.063-10.55-.018-1.865.024-3.728.17-5.626.555.594.11 1.187.23 1.783.328 3.398.56 6.806 1.063 10.198 1.655a.318.318 0 01.289-.085 262.73 262.73 0 0114.361 3.06c1.425.309 2.849.615 4.273.925 1.902.413 3.78.941 5.654 1.468.305.085.588.251.869.424.547.153 1.096.294 1.642.449.607.093 1.212.195 1.791.377.958.301 1.903.641 2.846.991 1.258.377 2.513.76 3.766 1.15.259-.001.514.006.75.08a793.887 793.887 0 0110.353 3.323c.231.076.427.256.625.431.52.178 1.036.363 1.554.543 1.56.218 3.021.709 4.364 1.526.424.152.846.313 1.271.466 1.568.333 3.031.94 4.461 1.633a576.953 576.953 0 018.755 3.328c.193.076.21.258.132.399 7.745 3.24 15.486 6.489 23.23 9.731.308.129.65.178.98.253-.603-.502-1.164-1.07-1.827-1.474-12.811-7.828-25.899-15.164-39.976-20.476zm39.966 19.025c-.218-.128-.495-.156-.755-.212 1.37.978 2.733 1.964 4.111 2.929 1.349.944 2.656 1.969 4.088 2.768 1.32.737 2.772 1.239 4.171 1.836-.322-.353-.607-.768-.999-1.006a1123.316 1123.316 0 00-10.616-6.315zm10.679 2.03l.353-.301c-1.062-1.449-2.177-2.863-3.178-4.353-4.094-6.097-8.2-12.187-12.202-18.344-1.342-2.066-2.45-4.294-3.554-6.503-1.942-3.887-3.8-7.816-5.693-11.727-.115-.238-.234-.473-.437-.662 4.226 16.351 13.824 29.505 24.711 41.89zM90.242 66.883c-.455 1.883-.406 3.796-.462 5.691-.195 6.534.404 13.009 1.465 19.455.538 3.264 1.267 6.461 2.441 9.56 1.167 3.08 2.252 6.192 3.401 9.28 1.233 3.314 2.941 6.39 4.798 9.387.099.159.272.271.621.608-1.056-3.17-2.031-6.067-2.984-8.971a3137.312 3137.312 0 01-4.243-13.02 16.256 16.256 0 01-.501-1.956c-.94-4.928-1.858-9.861-2.801-14.788-.046-.241-.117-.478-.168-.718a.185.185 0 01-.11-.13 52.9 52.9 0 01-.587-2.909 20.841 20.841 0 01-.489-3.365 61.422 61.422 0 01-.381-8.124zm2.757-28.875c-.106-.489-.264-.967-.678-1.445-.058.479-.148.956-.168 1.436-.275 6.732-.491 13.466-.831 20.194-.151 2.985-.654 5.952-.305 8.956.031.263-.164.552-.254.828l-.002-.01a.548.548 0 01.001.04c.01-.023.015-.047.025-.07.121 1 .475 1.998.116 3.001.195 2.974.564 5.935 1.037 8.891.277 1.229.574 2.455.823 3.691.827 4.115 1.545 8.254 2.451 12.351.548 2.481 1.358 4.905 2.07 7.349.053.182.23.327.367.484L94.52 88.14c-.962-4.787-1.6-9.587-1.287-14.503.156-2.455-.193-4.939-.134-7.406.124-5.238.297-10.476.581-15.706.228-4.207.215-8.382-.681-12.517zm1.246 33.842c-.006 2.021-.096 4.042-.065 6.062.064 4.292.951 8.486 1.692 12.687.676 3.833 1.609 7.62 2.403 11.433.954 4.58 2.667 8.884 4.696 13.076 1.598 3.303 3.188 6.611 4.82 9.897 1.422 2.863 3.035 5.612 5.267 8.578-1.413-3.44-2.743-6.361-3.822-9.373-2.703-7.547-5.081-15.199-6.893-23.015-.304-1.31-.465-2.657-.648-3.992-.734-5.344-1.556-10.679-2.145-16.039-.606-5.508-1.055-11.03-1.96-16.505-.218-1.319-.181-2.688-.18-4.035.004-4.76-.888-9.369-2.593-13.89-.192 4.406-.451 8.809-.555 13.217-.094 3.964-.007 7.932-.017 11.899zm1.927-23.604c1.045 4 1.755 8.035 1.853 12.185.056 2.39.315 4.779.56 7.161.374 3.648.813 7.291 1.227 10.935.11.969.204 1.939.349 2.902.917 6.078 1.864 12.151 2.765 18.231.651 4.398 2.063 8.589 3.416 12.796 1.741 5.419 3.395 10.867 5.659 16.106 3.195 7.393 7.097 14.368 12.066 20.725.088.113.22.192.333.289.018-1.1.014-1.098-.469-2.114-2.38-5.006-4.798-9.995-7.124-15.026-2.326-5.03-4.746-10.027-6.433-15.325-.522-1.64-1.034-3.293-1.395-4.974-1.321-6.154-2.68-12.303-3.815-18.492-.675-3.675-.982-7.42-1.412-11.138a645.431 645.431 0 01-1.096-10.282c-.223-2.236-.378-4.479-.58-6.717-.359-3.983-1.424-7.811-2.649-11.591-1.292-3.989-2.7-7.941-4.065-11.906-.095-.275-.253-.527-.382-.79l-.481.075c.555 2.317 1.071 4.645 1.673 6.95zm26.358 92.811l.94 3.077c.201-1.212-.019-2.277-.94-3.077zm-6.941-20.606c-1.275-6.085-2.726-12.133-4.003-18.218-.985-4.691-1.807-9.415-2.724-14.12-.401-2.057-.904-4.094-1.279-6.155-.403-2.209-.955-4.43-1.002-6.655-.071-3.358-.86-6.52-1.878-9.662-1.2-3.702-2.438-7.393-3.634-11.097l-.007-.026c-.403-.827-.809-1.653-1.213-2.479.064.645.305 1.172.49 1.711.218.637.344 1.305.552 1.946 1.595 4.888 2.128 9.947 2.459 15.041.049.747.117 1.494.193 2.239.522 5.143.957 10.298 1.609 15.425.378 2.966 1.08 5.893 1.687 8.828.819 3.962 1.801 7.893 2.508 11.874.977 5.505 2.782 10.723 5.033 15.807 1.517 3.425 3.085 6.827 4.639 10.235.179.392.415.759.948.999-.257-.984-.421-2.005-.786-2.946-1.607-4.137-2.684-8.411-3.592-12.747zm2.282-2.615a1310.994 1310.994 0 00-2.361-21.008c-.496-4.094-.951-8.212-1.81-12.237-.795-3.727-2.03-7.368-3.204-11.004-1.637-5.063-3.461-10.06-5.678-14.904a949.982 949.982 0 01-5.53-10.29c.246.644.499 1.286.732 1.935.274.763.479 1.551.708 2.331l.165.348c.515.729.852 1.533 1.125 2.362l.129.271a.24.24 0 01.009.164c.22.711.417 1.431.669 2.125 1.126 3.097 2.054 6.265 3.097 9.393.911 2.73 1.219 5.55 1.444 8.4.135 1.708.448 3.407.751 5.097.504 2.8 1.044 5.595 1.606 8.384a608.897 608.897 0 002.065 9.909c1.234 5.64 2.503 11.273 3.761 16.908.898 4.019 1.803 8.037 2.849 12.031.354-3.445-.172-6.829-.527-10.215zM98.182 45.091l-.083-.56-.186.046.269.514zm-3.394-10.4c-.447 1.892-.329 2.701.573 4.444.928 1.794 1.848 3.592 2.771 5.388l-.022.006.668 1.273-.163.025c1.706 2.884 3.317 5.827 4.977 8.734.108.19-.104.357-.258.283.017.095.045.184.058.281-.038-.045-.067-.093-.103-.138.243.48.486.96.731 1.439l-.016-.069c.401.613.88 1.189 1.192 1.845 2.835 5.97 5.032 12.185 6.982 18.487a182.025 182.025 0 012.599 9.307c.419 1.665.644 3.386.862 5.093.265 2.081.432 4.175.638 6.263.465 4.697.916 9.396 1.397 14.092.168 1.641.342 3.286.626 4.909.686 3.925.938 7.886 1.12 11.857.176 3.815 1.498 7.275 3.531 10.55-.052-.548-.121-1.095-.154-1.644-.361-6.058-.78-12.114-1.037-18.176-.082-1.933.396-3.883.391-5.825a90.381 90.381 0 00-.378-8.077c-.466-5.021-1.701-9.875-3.237-14.681-1.595-4.994-2.865-10.092-4.401-15.106a106.285 106.285 0 00-3.087-8.674c-3.289-8.137-6.937-16.109-11.355-23.707-1.581-2.718-3.233-5.396-4.905-8.179zm24.826 48.514c-3.122-11.851-8.403-22.748-14.417-33.332-.962-1.695-2.195-3.236-3.315-4.842.357.836.672 1.694 1.103 2.49 4.327 7.99 7.967 16.288 11.038 24.829.911 2.532 1.477 5.185 2.247 7.769 1.304 4.38 2.718 8.73 3.942 13.131.741 2.664 1.238 5.397 1.793 8.11.269 1.319.421 2.663.692 3.986-.283-7.482-1.166-14.867-3.083-22.141zm3.451 41.811l.048-9.354c-.733 2.939-.729 6.41-.048 9.354zm.388 9.053l-.048-.003c.359 2.746.709 5.493 1.079 8.238.15 1.111.367 2.212.508 3.324.228 1.801.682 3.506 1.99 5.115l-3.529-16.674zm-58.636 60.315c8.623 2.296 17.255 4.546 26.187 5.335 7.997.706 16.002.997 24.028.647 7.488-.325 14.984-.486 22.463-.944 5.08-.311 10.137-1.01 15.201-1.678-2.368-.542-4.769-.439-7.153-.471-6.142-.085-12.286-.111-18.429-.128-1.872-.005-3.746.077-5.617.15-4.566.177-9.13.417-13.697.545-3.518.099-7.062.332-10.556.041-7.463-.623-14.906-1.514-22.349-2.361-3.052-.347-6.083-.872-9.125-1.301-.486-.068-.981-.073-1.472-.101.17.099.335.218.519.266zM138.829 196l-1.728.133 1.716.208.012-.341zm-88.744-6.674c8.552 2.897 17.396 4.424 26.329 5.442 7.058.804 14.13 1.533 21.214 2.031 3.717.261 7.474-.042 11.213-.099 2.767-.041 5.535-.063 8.301-.153 2.242-.074 4.479-.294 6.721-.346 2.615-.061 5.233.004 7.85-.014.896-.007 1.791-.083 2.687-.137-1.775-.202-3.546-.453-5.325-.582-6.649-.483-13.297-1.026-19.954-1.348-8.981-.435-17.945-1.092-26.912-1.727-6.584-.467-13.117-1.319-19.647-2.24-4.673-.659-9.365-1.18-14.049-1.755-.193-.023-.393.006-.59.022.719.308 1.424.656 2.162.906zm-10.447-3.412c3.954.829 7.94 1.538 11.939 2.109 6.078.868 12.168 1.682 18.274 2.322 6.999.733 14.015 1.329 21.034 1.841 7.915.578 15.842.995 23.764 1.484 8.668.535 17.335 1.11 26.006 1.6 6.801.384 13.608.658 20.412.993a11.678 11.678 0 004.602-.702c-2.231-.069-4.47-.038-6.69-.23-3.802-.329-7.6-.73-11.385-1.22-10.025-1.299-20.042-2.664-30.062-4-4.825-.643-9.637-1.432-14.48-1.886-12.003-1.124-24.011-2.217-36.034-3.088-10.752-.779-21.527-1.249-32.293-1.839-.564-.03-1.136.079-1.705.134 2.028 1.299 4.313 1.998 6.618 2.482zm-.209-3.103c8.232.411 16.48.613 24.693 1.255 14.417 1.127 28.841 2.268 43.209 3.876 13.399 1.5 26.737 3.565 40.087 5.482 6.173.887 12.365 1.285 18.59 1.367 2.247.03 4.493.112 6.739.158.408.008.817-.04 1.282-.407-.848-.228-1.693-.47-2.545-.681a147.004 147.004 0 00-23.936-3.882c-.868-.068-1.717-.365-2.575-.556.249.011.499.02.748.03l-1.045-.145c.114.049.227.1.342.142-.514.033-1.036.144-1.54.085a265.47 265.47 0 01-6.821-.887c-.494-.07-.967-.294-1.449-.448.3-.019.602-.068.901-.083l-3.775-.522c.51.125 1.018.257 1.528.38-.667-.014-1.344.043-1.998-.056a326.168 326.168 0 01-7.08-1.162c-.385-.066-.753-.23-1.125-.364-1.594-.22-3.187-.443-4.781-.664-.22.021-.435.01-.634-.089-.975-.135-1.948-.276-2.923-.412-.149-.018-.301-.019-.449-.044-.637-.105-1.276-.188-1.912-.29-4.299-.601-8.597-1.201-12.892-1.819-.025-.004-.029-.024-.05-.031a557.513 557.513 0 00-26.434-2.73c-6.787-.543-13.62-.566-20.434-.669-2.385-.036-4.785.33-7.165.625-4.457.555-8.903 1.192-13.349 2.143 2.264.134 4.528.285 6.793.398zm127.223 9.199c-.532-.321-1.038-.722-1.614-.91-2.562-.837-5.111-1.754-7.73-2.366-9.477-2.216-18.938-4.558-28.582-5.942-8.15-1.17-16.324-2.214-24.513-3.053-4.906-.502-9.863-.518-14.798-.725-5.383-.226-10.767-.468-16.152-.612-3.362-.091-6.727-.02-10.091-.006a1.633 1.633 0 00-1.09.41c2.703.129 5.415.162 8.108.407 7.454.679 14.901 1.435 22.349 2.183 3.858.387 7.699.897 11.53 1.472 15.259 1.852 30.502 4.169 45.647 6.779.205.014.411.019.617.035 5.489.419 10.924 1.235 16.319 2.328zm-51.49-19.684c-7.662-1.96-15.463-2.853-23.361-2.902-7.353-.044-14.68.374-21.959 1.467-3.48.523-6.961 1.046-10.438 1.591a9.4 9.4 0 00-2.113.604c4.471-.446 8.948-.841 13.412-1.35 6.931-.79 13.866-1.237 20.854-1.16.836.009 1.67.023 2.505.042.032-.081.104-.142.225-.137 7.712.31 15.347 1.269 22.923 2.694l.205-.001c-.749-.288-1.48-.65-2.253-.848zm9.585 2.989c-2.773-.605-5.587-1.018-8.377-1.546-.39-.074-.774-.18-1.157-.292-5.551-.908-11.14-1.586-16.742-2.092-2.337-.104-4.68-.116-7.026-.095-4.946.047-9.885.186-14.811.658-.672.064-1.345.111-2.016.179-5.368.542-10.736 1.084-16.103 1.633-.895.092-1.786.223-2.679.327-3.276.384-6.563.683-9.823 1.172-2.288.344-4.538.945-6.779 1.6 4.269-.491 8.544-.929 12.804-1.487 5.735-.751 11.502-.907 17.27-1.079 4.043-.121 8.088-.268 12.132-.28 6.141-.018 12.284-.006 18.424.137 5.464.128 10.942.229 16.362 1.06 7.406 1.135 14.817 2.255 22.081 4.157.578.151 1.183.2 1.78.279-4.996-1.859-10.143-3.197-15.34-4.331zm51.225 17.518c-11.719-4.653-23.736-8.421-35.805-12.028-6.769-2.023-13.748-3.05-20.704-4.182-6.602-1.075-13.26-1.385-19.929-1.516-6.141-.12-12.285-.265-18.425-.182-6.965.095-13.928.42-20.891.668-5.4.193-10.76.816-16.113 1.526-3.64.483-7.291.881-10.932 1.36-2.379.313-4.613 1.169-6.903 1.814l.004.579c.562.033 1.135.152 1.685.086 6.325-.767 12.635-1.686 18.974-2.309 4.541-.447 9.117-.594 13.683-.718a316.47 316.47 0 0113.916-.06c7.19.12 14.378.416 21.568.535 8.948.147 17.738 1.745 26.595 2.73 8.662.963 17.133 2.928 25.632 4.75 2.93.629 5.851 1.308 8.775 1.969 5.29 1.194 10.258 3.335 15.323 5.195 1.263.464 2.567.823 3.864 1.183.698.194 1.423.287 2.525.502-.962-1.132-1.89-1.524-2.842-1.902zm2.301-106.335c-.027.263-.11.547-.073.814.788 5.692.297 11.377-.332 17.024-.687 6.174-1.739 12.307-2.597 18.463-.612 4.391-.911 8.796-.221 13.21.706 4.517 1.337 9.05 2.191 13.54 1.182 6.216 3.415 12.102 6.032 17.846 1.708 3.75 3.468 7.477 5.138 11.244 2.898 6.533 7.042 12.171 12.141 17.141 4.804 4.681 10.108 8.747 15.533 12.666-.488-.572-.955-1.164-1.483-1.696-4.435-4.463-8.897-8.899-13.316-13.378-.89-.902-1.664-1.927-2.432-2.94-5.545-7.319-10.067-15.225-13.66-23.677-2.227-5.238-4.438-10.482-5.938-15.982-1.007-3.697-1.645-7.46-2.002-11.266-.954-6.709-.988-13.585-.263-20.309.388-3.597 1.087-7.122 1.814-10.663.756-3.675 1.218-7.326 1.015-11.086-.2-3.688-.845-7.329-1.545-10.951h-.002zm4.016 10.984c-.072-.746-.086-1.497-.117-2.245-.135-3.264-1.345-6.088-3.43-8.553.63 2.968 1.22 5.95 1.521 8.969a38.68 38.68 0 01-.417 10.748l.103.023a74.47 74.47 0 00-.182.414c-.085.455-.175.909-.264 1.364l-.055.327-.224 1.413-.049.08.012-.103.086-.538-.145.717c-.14.691-.279 1.383-.416 2.074l-.014.074.007-.011a7.737 7.737 0 00-.012.103l-.269 1.36-.239 1.403-.165.972c-.04.259-.083.517-.12.776l-.144 1.039a81.829 81.829 0 00-.548 6.293l.043.684c-.031-.049-.041-.088-.068-.135a80.213 80.213 0 00-.064 2.354c.245.584.279 1.187.042 1.806l-.058-.378c0 .043-.002.085-.001.128.001.165.011.329.013.493.013-.029.021-.059.036-.088.095 1.129.602 2.254.08 3.391.008.151.02.302.03.454.171.801.384 1.602.173 2.413.171 1.936.398 3.868.679 5.796a.256.256 0 01-.062.221c.128.895.253 1.791.394 2.684 1.079 6.867 3.419 13.342 6.235 19.66a346.416 346.416 0 003.744 8.18c3.34 7.001 7.533 13.474 12.292 19.585.597.767 1.281 1.471 1.967 2.163 3.114 3.143 6.235 6.28 9.378 9.396.494.49 1.092.875 1.65 1.301-1.822-2.963-3.543-5.995-5.496-8.869-3.79-5.578-7.736-11.051-11.579-16.594-3.353-4.836-5.646-10.215-7.897-15.615-1.789-4.291-3.512-8.608-4.606-13.135-1.533-6.34-2.902-12.718-3.563-19.219-.128-1.26-.113-2.551-.008-3.814.461-5.523.884-11.051 1.507-16.556.491-4.34.641-8.661.22-13.005zm1.019-1.798c-.006 1.451-.07 2.906.038 4.348.27 3.615.017 7.195-.544 10.759-.982 6.232-1.429 12.508-1.641 18.805-.025.747-.004 1.504.095 2.243 1.125 8.419 2.809 16.725 5.691 24.725 1.7 4.719 3.681 9.346 5.717 13.934 2.6 5.861 6.457 10.97 10.098 16.199.149.213.393.36.606.528-.404-1.013-.746-2.057-1.233-3.028-3.905-7.787-6.804-15.978-9.646-24.182-1.469-4.241-2.577-8.599-3.103-13.088-.02-.173-.049-.345-.07-.517a.186.186 0 01-.117-.137 50.586 50.586 0 01-1.267-7.063c-.13-.023-.242-.114-.244-.287a342.09 342.09 0 00-.334-12.488l-.024-.159.018-.002a278.563 278.563 0 00-.276-5.083c-.377-5.83-.818-11.696-1.804-17.46a60.123 60.123 0 00-1.26-5.695l.003.022-.125.013-.021-.54a59.416 59.416 0 00-.557-1.847zm5.268 45.433c-.105-.69-.207-1.38-.31-2.071-.016.027-.015.067-.038.087.103.664.231 1.323.348 1.984zm17.174 9.151c-.908-6.004-1.718-12.024-2.752-18.006-.87-5.032-2.278-9.933-4.498-14.565-.191-.399-.407-.785-.612-1.176l-.425.097c.602 2.389 1.082 4.817 1.831 7.16 1.942 6.078 3.357 12.275 4.538 18.536a148.643 148.643 0 002.215 9.888c-.099-.645-.2-1.289-.297-1.934zm4.704 34.424c-.307-1.313-.617-2.629-.831-3.959-1.011-6.292-1.978-12.591-2.988-18.883-.237-1.478-.646-2.93-.861-4.411-.303-2.073-.491-4.163-.742-6.245-.117-.967-.208-1.942-.41-2.893-1.014-4.76-2.008-9.526-3.118-14.264-.614-2.623-1.458-5.191-2.173-7.791-.973-3.538-1.975-7.069-2.861-10.629-.585-2.352-1.407-4.572-2.736-6.608-2.583-3.953-5.134-7.927-7.709-11.885-.181-.277-.432-.507-.662-.752 1.1 2.579 2.206 5.154 3.295 7.737 1.165 2.759 2.404 5.491 3.437 8.299.694 1.889 1.158 3.873 1.602 5.843.988 4.384 1.902 8.784 2.84 13.179.188.879.323 1.77.52 2.648.806 3.579 1.62 7.156 2.443 10.731.521 2.263 1.094 4.514 1.587 6.783 1.705 7.835 3.313 15.691 5.099 23.507 1.27 5.56 3.197 10.926 5.356 16.203.128.312.351.585.689.795-.594-2.468-1.201-4.933-1.777-7.405zm-21.535-78.18c1.114 5.538 2.116 10.751 3.219 15.942 1.221 5.74 1.472 11.577 1.969 17.396.377 4.397.936 8.773 1.961 13.089.501 2.113.847 4.263 1.202 6.412.274 1.069.563 2.134.869 3.196.125.3.205.613.264.932a149.844 149.844 0 002.541 7.712c.355.992.729 1.977 1.109 2.961.159.397.305.8.469 1.195l.013.033c1.656 4.004 3.517 7.916 5.478 11.785.12.239.214.492.3.748.555 1.053 1.141 2.088 1.721 3.127l.375.514c-.649-1.943-1.268-3.896-1.957-5.823-1.973-5.514-3.386-11.158-4.45-16.921-1.101-5.96-2.547-11.855-3.843-17.778-1.231-5.63-2.48-11.256-3.691-16.89-1.148-5.342-2.209-10.703-3.4-16.035-.751-3.36-1.72-6.667-3.209-9.794-.245-.515-.527-1.013-.94-1.801zm27.661 97.685c-2.251-4.038-4.558-8.045-6.784-12.097a7.794 7.794 0 01-.457-1.035c-3.863-6.937-7.11-14.211-9.604-21.747a12 12 0 01-.914-2.901c-.136-.447-.281-.89-.412-1.338l-.057-.207c-.381-.613-.477-1.309-.555-2.01-.153-.583-.295-1.17-.441-1.755-.154-.307-.297-.617-.358-.942-.138-.727-.268-1.457-.403-2.185-.096-.403-.193-.805-.288-1.208a.16.16 0 01.038-.146c-.668-3.61-1.328-7.222-1.999-10.832-.919-4.951-1.315-9.956-1.703-14.968-.161-2.089-.517-4.171-.917-6.23-.871-4.491-1.879-8.955-2.735-13.449-.863-4.526-2.577-8.765-4.187-13.044-.26-.689-.556-1.366-.973-2.024 1.18 3.559 1.954 7.233 2.482 10.947l.035-.023.972 6.323-.178.029-.295-1.913c.169 1.609.319 3.218.456 4.83l.115-.012.135 1.627-.121.006c.285 3.618.504 7.24.656 10.864.11 2.645.177 5.293.212 7.94.089.389.18.778.236 1.171.384 2.67.746 5.342 1.121 8.013.805 5.735 2.345 11.276 4.365 16.695 2.196 5.891 4.391 11.776 6.998 17.511 3.708 8.157 8.409 15.698 13.58 22.978.817 1.15 1.522 2.38 2.278 3.574l-.005.005.589.817.9.262c-.59-1.177-1.142-2.376-1.782-3.526zm188.755 159.285c-1.138-1.145-2.417-2.07-3.987-2.538 1.15 1.13 2.364 2.157 3.987 2.538zm-4.519-2.93c-.469-.646-1.053-1.068-1.888-1.003l1.888 1.003zm-23.014-11.572c.359.157.761.216 1.149.304-3.076-1.852-6.149-3.707-9.232-5.547-.156-.094-.373-.086-.572-.107 2.604 2.237 5.517 3.979 8.655 5.35zm-41.858-21.384c2.95 1.12 5.904 2.228 8.857 3.339.349.478.813.689 1.388.645l-1.365-.682c-2.87-1.648-5.768-3.224-9.143-3.574.083.103.157.231.263.272zm-4.446-6.775a43.587 43.587 0 01-4.766-4.256.452.452 0 01-.568-.095c-4.422-4.574-8.668-9.342-12.845-14.14-.085-.098-.075-.208-.034-.305-3.349-3.958-6.504-8.068-9.586-12.247-6.345-8.604-13.606-16.349-22.377-22.571-.482-.343-.979-.664-1.686-.767.346.317.687.64 1.04.95 1.687 1.486 3.356 2.994 5.072 4.447 4.681 3.962 8.494 8.665 11.716 13.847 3.728 5.994 7.989 11.6 12.346 17.133 1.57 1.994 3.407 3.783 5.186 5.605 1.988 2.037 4.067 3.986 6.072 6.008 1.546 1.56 3.263 2.852 5.254 3.799 1.742.829 3.454 1.72 5.176 2.592zm-6.792-7.836c-.161-.307-.301-.629-.5-.908-3.361-4.686-6.758-9.345-10.09-14.051-3.858-5.45-7.969-10.686-12.583-15.521a86.936 86.936 0 00-9.49-8.586c-.681-.53-1.433-.969-2.156-1.445.222.347.416.719.69 1.017 1.773 1.932 3.528 3.885 5.366 5.756 3.795 3.864 7.151 8.071 10.134 12.589 2.732 4.14 6.013 7.849 9.219 11.615.27.318.509.662.741 1.012.445.48.882.967 1.33 1.444.05.033.112.057.153.1 1.174 1.228 2.331 2.472 3.49 3.715.895.923 1.805 1.834 2.71 2.749l.986.514zm-21.674-12.461c-4.173-4.612-8.347-9.223-12.576-13.784-3.259-3.516-6.598-6.957-9.901-10.432-1.806-1.901-3.621-3.795-5.407-5.716-.008-.009-.013-.02-.021-.029a1028.97 1028.97 0 01-6.303-6.231l-.605-.25c.298.558.439.935.673 1.24 4.144 5.407 8.24 10.853 12.482 16.182 1.531 1.922 3.328 3.661 5.161 5.308 5.4 4.857 10.878 9.629 16.332 14.427.473.416.986.786 1.485 1.173-.429-.639-.809-1.323-1.32-1.888zm1.348.348c2.851 3.245 5.73 6.462 9.305 8.954.163.114.37.165.562.237-.119-.246-.2-.534-.387-.709-3.221-3.019-6.457-6.022-9.69-9.029.057.194.089.409.21.547zm-33.965-35.715c.457.246.804.605 1.048 1.069l.423.435c.59.264.992.72 1.267 1.307l.194.2c.452.175.751.491.908.937l.569.587c.359.258.716.518 1.028.824a746.096 746.096 0 018.278 8.221c1.734 1.756 3.415 3.565 5.087 5.379 3.346 3.63 6.666 7.285 10.011 10.916.271.295.632.506.963.745-.348-.612-.649-1.261-1.072-1.817-1.764-2.316-3.567-4.603-5.362-6.895-1.565-1.998-3.186-3.954-4.699-5.99-2.201-2.96-4.802-5.506-7.638-7.845a103.172 103.172 0 01-5.373-4.735c-2.281-2.163-4.581-4.291-7.236-5.991-.482-.309-1.042-.493-1.568-.733l.167.32c1.002 1.021 2.004 2.043 3.005 3.066zm-.942-3.16c2.745 1.719 5.078 3.924 7.415 6.137a86.395 86.395 0 005.05 4.434c3.04 2.459 5.762 5.197 8.046 8.385 1.435 2.002 3.017 3.9 4.526 5.849 2.196 2.836 4.418 5.652 6.568 8.523 2.071 2.767 4.433 5.252 7.011 7.539.302.268.685.445 1.039.654-.424-.665-.814-1.355-1.288-1.982-4.024-5.323-8.015-10.66-11.57-16.323-2.801-4.461-6.194-8.475-10.201-11.928-3.293-2.838-6.587-5.679-9.951-8.434-2.209-1.809-4.815-2.903-7.542-3.705.292.295.555.636.897.851zm-45.906 111.984c7.826-.934 15.589-2.255 23.252-4.086 9.062-2.166 17.778-5.371 26.342-9.017 7.535-3.209 14.838-6.851 21.605-11.481 2.922-1.999 5.709-4.196 8.542-6.324-9.356 4.213-17.887 10.104-27.355 14.103-.218.092-.366-.05-.406-.229-6.341 2.745-12.77 5.267-19.443 7.108-6.938 1.914-13.787 4.085-20.627 6.307-3.983 1.294-8.043 2.348-12.159 3.536.155.053.205.088.249.083zm-10.876 1.217c3.405-.446 6.795-1.173 10.114-2.062 5.28-1.415 10.504-3.04 15.737-4.624 4.515-1.368 8.98-2.909 13.522-4.177 4.113-1.149 8.259-2.182 12.245-3.728 5.164-2.002 10.298-4.081 15.45-6.117.24-.095.485-.176.729-.259.797-.407 1.595-.81 2.385-1.231a8.077 8.077 0 011.053-.566 330.842 330.842 0 003.199-1.753c.035-.019.069-.039.104-.057l2.332-1.296c.535-.48 1.176-.792 1.864-1.029.261-.144.523-.289.785-.432a6.781 6.781 0 012.945-1.578l.196-.101c.278-.268.535-.575.863-.746a570.567 570.567 0 018.098-4.135c.321-.161.713-.178 1.073-.263l.006.006c.456-.348.877-.761 1.375-1.03 4.6-2.478 8.724-5.644 12.848-8.812-.754.348-1.52.673-2.249 1.066-4.481 2.417-8.805 5.174-13.598 6.942-7.25 2.674-14.112 6.224-21.237 9.165-12.458 5.142-24.919 10.289-37.685 14.64-5.953 2.03-11.898 4.09-17.902 5.961-4.215 1.315-8.523 2.33-12.788 3.486-3.824 1.038-7.644 2.086-11.433 3.318 3.325-.178 6.677-.157 9.969-.588zm-2.806-2.473c4.454-1.32 8.991-2.357 13.441-3.687 5.454-1.63 10.903-3.3 16.269-5.193a1092.9 1092.9 0 0025.524-9.381c6.09-2.319 12.114-4.816 18.126-7.332 3.107-1.301 6.105-2.862 9.188-4.224 2.671-1.181 5.358-2.342 8.1-3.343 4.173-1.522 8.087-3.56 11.966-5.685.248-.136.456-.346.579-.774-1.319.399-2.667.724-3.954 1.208-7.571 2.847-15.147 5.683-22.683 8.619-5.658 2.204-11.393 4.17-17.187 5.98-6.005 1.877-11.986 3.83-17.982 5.736-3.783 1.202-7.595 2.317-11.358 3.581-5.111 1.715-10.211 3.47-15.272 5.328-6.046 2.22-12.12 4.389-18.039 6.914-4.839 2.064-9.871 3.527-14.771 5.382-.75.284-1.488.602-2.54 1.029 7.273-.594 13.965-2.193 20.593-4.158zm103.075-40.553c-4.309 1.076-8.622 2.139-12.926 3.235-3.266.831-6.495 1.825-9.786 2.536-8.064 1.744-15.983 3.958-23.763 6.704-5.153 1.819-10.404 3.363-15.535 5.236-6.117 2.233-12.136 4.734-18.23 7.034-11.717 4.422-22.951 9.919-34.244 15.287-.331.158-.637.368-.883.828.573-.15 1.171-.24 1.717-.458 4.1-1.642 8.151-3.414 12.291-4.947 9.055-3.353 18.104-6.735 27.248-9.833 9.997-3.387 20.051-6.626 30.168-9.636 9.425-2.804 18.466-6.599 27.644-10.048 5.043-1.895 10.158-3.601 15.235-5.405.371-.132.713-.345 1.064-.533zm-124.516 44.121c2.581-1.253 5.167-2.496 7.741-3.762 10.007-4.922 19.926-10.039 30.309-14.142 9.812-3.878 19.638-7.733 29.553-11.337 7.171-2.606 14.49-4.806 21.76-7.135 1.708-.547 3.485-.874 5.227-1.314 6.097-1.539 12.195-3.067 18.285-4.628a1795.52 1795.52 0 0015.168-3.947 130.396 130.396 0 014.668-1.645.517.517 0 01.307-.458c1.569-.715 3.223-1.254 4.904-1.682l.007-.51c-2.594-.424-5.111-.081-7.554.61-2.3.651-4.636 1.041-6.993 1.324-1.83.42-3.662.831-5.488 1.27.144.012.287.023.431.04l-1.572.241c-9.272 2.255-18.486 4.755-27.638 7.441-1.404.411-2.802.84-4.202 1.265-9.369 2.942-18.654 6.133-27.82 9.671-5.022 1.939-9.991 4.015-14.971 6.06-4.653 1.911-8.873 4.651-13.294 7.005-7.328 3.904-14.692 7.738-22.031 11.619a231.066 231.066 0 00-5.893 3.253c-.337.19-.611.493-.904.761zm43.132-36.44c6.947-3.467 14.082-6.495 21.364-9.183-7.651 1.815-14.701 5.047-21.364 9.183zm66.478-15.71c-5.816.524-11.631 1.052-17.443 1.614-2.535.245-5.063.559-7.592.857-7.255.857-14.213 2.792-21.052 5.37-9.485 3.575-18.633 7.812-27.404 12.876a49.83 49.83 0 00-4.156 2.671c-5.17 3.715-10.318 7.46-15.458 11.215-3.577 2.612-6.687 5.746-10.005 8.878l.206.08c4.56-3.116 9.275-5.984 14.036-8.786a3.94 3.94 0 01.584-.477c2.142-1.37 4.27-2.77 6.482-4.021 8.202-4.637 16.431-9.227 24.659-13.818a63.541 63.541 0 0111.499-5.011c3.772-1.216 7.571-2.367 11.281-3.753 4.014-1.499 8.086-2.692 12.331-3.288.591-.083 1.171-.245 1.757-.369 3.805-.81 7.596-1.697 11.42-2.406 3.268-.606 6.572-1.015 9.861-1.507-.337-.057-.677-.155-1.006-.125zm1.1.142l-.045-.008c-.885.297-1.754.671-2.662.858-2.128.437-4.289.723-6.416 1.167-4.4.918-8.781 1.93-13.181 2.846-3.743.78-7.47 1.574-11.078 2.896-3.656 1.339-7.371 2.522-11.072 3.734-3.776 1.236-7.545 2.483-11.075 4.341-2.387 1.257-4.765 2.53-7.15 3.791a493.714 493.714 0 00-25.244 14.314.25.25 0 01-.131.249c-1.501.879-2.98 1.794-4.444 2.733-.183.128-.371.246-.562.362-2.639 1.709-5.223 3.504-7.779 5.336.643-.294 1.292-.578 1.894-.939 8.417-5.038 16.783-10.163 25.245-15.124 5.488-3.217 11-6.437 16.975-8.699 5.321-2.014 10.729-3.799 16.053-5.806 5.343-2.013 10.887-3.298 16.375-4.797 3.611-.986 7.198-2.063 10.8-3.082 5.912-1.673 11.839-3.28 17.956-4.04.369-.046.736-.112 1.076-.482l-5.535.35zm21.028.495c-4.258-.565-8.508-.718-12.762.091-1.693.322-3.415.495-5.123.738-6.624.945-13.064 2.678-19.474 4.543-4.101 1.193-8.189 2.44-12.328 3.485a120.591 120.591 0 00-12.239 3.765c-4.71 1.735-9.505 3.252-14.165 5.11-3.75 1.495-7.418 3.234-11.012 5.08-9.075 4.661-17.786 9.963-26.454 15.33-4.906 3.038-9.771 6.143-14.63 9.256-.627.402-1.125 1.004-1.671 1.532 3.563-1.794 7.161-3.523 10.679-5.401 7.663-4.093 15.282-8.269 22.923-12.403 4.69-2.536 9.685-4.375 14.611-6.373 8.422-3.414 16.995-6.404 25.615-9.261.02-.108.072-.209.206-.256 15.215-5.404 30.758-9.856 46.576-13.111a434.667 434.667 0 0110.178-1.955 12.342 12.342 0 00-.93-.17zm1.992-2.298c2.446.797 4.958 1.391 7.443 2.068-.264-.205-.51-.46-.809-.562a916.707 916.707 0 00-10.003-3.356c-.32-.106-.68-.089-1.026-.115 1.46.669 2.878 1.47 4.395 1.965zm-51.148-14.422l-2.119-.496c.633.479 1.361.552 2.119.496zm-10.865-2.584c2.838.684 5.683 1.336 8.526 1.998-.278-.169-.547-.373-.849-.456-2.929-.802-5.866-1.575-8.921-2.088.414.186.811.441 1.244.546zm-22.266-4.338l-.001-.336c-.234-.029-.484-.124-.695-.067-.159.043-.268.277-.612.669l1.308-.266zm-19.604 8.319c-.508.079-1.024.122-1.523.24-3.421.807-6.846 1.6-10.256 2.452-6.633 1.656-13.466 2.19-20.135 3.595a247.774 247.774 0 01-19.059 3.227c-3.269.427-6.567.653-9.817 1.184-6.578 1.076-13.133 2.299-19.697 3.462l.033.316c2.678-.252 5.355-.523 8.035-.75 3.434-.29 6.869-.56 10.305-.812 4.347-.321 8.611-1.151 12.89-1.938 6.338-1.166 12.689-2.282 19.065-3.213 4.759-.696 9.443-1.605 14.048-3.008 3.294-1.003 6.662-1.763 10-2.62 2.09-.537 4.187-1.052 6.111-2.135zm-90.022 17.267c6.074.278 12.138.007 18.197-.389 9.205-.601 18.408-1.292 27.473-3.073 6.838-1.343 13.668-2.776 20.421-4.488 4.124-1.046 8.102-2.677 12.13-4.093.728-.257 1.386-.717 2.071-1.097-2.29.547-4.612.988-6.859 1.676-4.533 1.389-9.157 2.235-13.847 2.886-6.164.857-12.3 1.912-18.439 2.938-3.323.556-6.615 1.304-9.944 1.82-1.993.309-4.032.316-6.047.498-2.313.209-4.618.504-6.932.683-4.557.353-9.116.667-13.676.968-4.409.291-8.821.546-13.237 1.188 2.896.163 5.792.35 8.689.483zm-16.957-1.988c4.045 0 8.09-.103 12.135-.177a15.424 15.424 0 002.016-.152c8.746-1.335 17.483-2.732 26.237-4.013 6.378-.934 12.781-1.693 19.165-2.585 3.042-.426 6.069-.962 9.097-1.483 2.807-.484 5.605-1.027 8.41-1.524 6.791-1.202 13.605-2.288 20.369-3.627 3.811-.754 7.548-1.894 11.307-2.901 1.806-.485 3.635-.945 5.368-1.632 2.355-.934 4.628-2.075 6.936-3.127-5.503.837-11.012 1.53-16.296 3.324-2.399.815-4.926 1.288-7.422 1.781-4.189.826-8.397 1.561-12.603 2.302-3.101.546-6.202 1.109-9.319 1.545-5.494.77-11.009 1.387-16.5 2.18-7.049 1.019-14.099 2.057-21.12 3.257-6.723 1.148-13.42 2.463-20.109 3.8-5.461 1.093-11.012 1.288-16.525 1.867-2.306.243-4.608.516-6.909.909 1.91.429 3.846.256 5.763.256zm.156-5.387c1.995-.509 3.988-1.024 5.986-1.524 2.471-.619 4.93-1.297 7.421-1.821 4.401-.927 8.833-1.707 13.233-2.637 15.64-3.304 31.497-5.27 47.285-7.643 7.407-1.113 14.882-1.866 22.352-2.437 6.202-.475 12.411-.823 18.594-1.533 1.475-.17 2.971-.165 4.954-.265-1.564-.777-2.77-.716-3.918-.741-3.591-.077-7.186-.025-10.778-.079-3.967-.06-7.934-.25-11.901-.253-3.291-.002-6.586.12-9.873.306-5.008.282-10.01.659-15.014 1.013-.971.069-1.936.22-2.904.328-3.276.364-6.581.56-9.822 1.126-5.533.964-11.028 2.146-16.534 3.264-2.789.566-5.566 1.194-8.35 1.788-5.95 1.268-11.705 3.193-17.399 5.288-4.074 1.499-8.076 3.19-12.103 4.811-.466.187-.893.472-1.338.711l.109.298zm-1.048 1.439c1.844-.284 3.686-.585 5.534-.847 10.907-1.552 21.815-3.095 32.723-4.637 1.411-.2 2.826-.364 4.236-.562 14.995-2.106 29.988-4.221 44.983-6.322 8.17-1.145 16.291-2.565 24.348-4.336 1.523-.335 3.014-.812 4.521-1.224a4.648 4.648 0 01-.025-.114c-2.311.198-4.621.41-6.934.592-5.302.418-10.604.821-15.907 1.229-.597.046-1.198.063-1.793.129-12.146 1.351-24.27 2.847-36.305 5.009-3.097.557-6.238.863-9.342 1.389a1237.8 1237.8 0 00-17.928 3.173c-4.126.762-8.251 1.549-12.344 2.47-4.528 1.018-9.019 2.2-13.524 3.315-.763.189-1.52.402-2.243.736zm-7.469 3.037c4.921-.47 9.851-.873 14.762-1.435 4.018-.46 8.031-1.016 12.017-1.7 6.351-1.09 12.672-2.353 19.016-3.484 4.943-.882 9.887-1.779 14.858-2.484 7.865-1.117 15.761-2.019 23.627-3.134 3.779-.535 7.518-1.349 11.274-2.037l-.004-.229c-.37.039-.741.065-1.108.117-12.769 1.779-25.536 3.568-38.306 5.339-10.395 1.442-20.784 2.93-31.193 4.262-4.612.59-9.21 1.192-13.767 2.138-3.301.685-6.65 1.138-9.971 1.728-.94.168-1.86.454-2.727 1.053.507-.044 1.015-.086 1.522-.134zm-3.895-1.534c-.171.093-.291.279-.429.433 3.383-.618 6.662-1.523 9.733-3.146 6.714-3.55 13.861-6.037 21.03-8.468 8.757-2.969 17.763-4.877 26.864-6.406 2.066-.347 4.101-.881 6.161-1.274 6.783-1.295 13.633-2.011 20.524-2.421 4.41-.263 8.805-.806 13.217-1.001 4.334-.19 8.681-.134 13.022-.12 4.267.014 8.534.176 12.8.153 3.304-.018 6.584.112 9.846.653.59.098 1.195.225 1.782.184.469-.032.922-.299 1.348-.82-1.008-.171-2.013-.36-3.023-.511-6.682-1.003-13.421-1.25-20.159-1.388-5.614-.115-11.233-.144-16.846-.031-3.891.077-7.772.549-11.663.689-8.267.297-16.413 1.582-24.539 2.97-3.459.59-6.835 1.667-10.248 2.528-2.469.622-4.935 1.26-7.405 1.878-11.136 2.788-22.083 6.152-32.516 10.994-3.255 1.511-6.342 3.384-9.499 5.104zm91.141-27.96c-9.083.026-18.109.871-27.057 2.448-15.533 2.738-30.236 7.981-44.421 14.772-.554.266-1.044.666-1.559 1.016 1.097-.355 2.191-.718 3.292-1.062 4.644-1.45 9.261-2.998 13.943-4.316a583.394 583.394 0 0119.546-5.169c3.412-.835 6.91-1.332 10.381-1.907 2.365-.393 4.764-.584 7.126-.993 5.337-.925 10.736-1.012 16.12-1.312 3.589-.2 7.18-.48 10.771-.506 5.014-.037 10.03.098 15.044.221 3.354.083 6.707.273 10.08.32-1.485-.616-3.047-.958-4.623-1.177-9.502-1.322-19.036-2.364-28.643-2.335zm-17.955-16.558c3.634 2.11 7.388 3.952 11.354 5.379 9.16 3.294 18.292 6.668 27.446 9.977 2.041.738 4.106 1.434 6.205 1.974 1.313.338 2.704.376 4.064.534-.496-.23-.98-.501-1.498-.657-14.362-4.317-28.374-9.584-42.152-15.491-2.083-.893-4.225-1.648-6.341-2.463.3.261.584.551.922.747zm-27.82-6.397c-2.856.243-5.562 1.007-8.134 2.231l8.134-2.231zm.242-1.253a69.28 69.28 0 01-.06-.224c-7.623.555-15.247 1.102-22.869 1.673-1.195.09-2.384.271-3.571.446-6.465.951-12.959 1.293-19.497 1.323a136.62 136.62 0 00-15.253.915c-4.336.508-8.667.612-13.008.769-4.942.177-9.882.384-14.823.558-2.846.1-5.694.144-8.54.249-1.249.046-2.494.18-3.759.629.485.1.967.224 1.457.296 4.757.698 9.547.818 14.346.86 5.844.051 11.688.273 17.531.256 3.742-.01 7.486-.278 11.225-.506 5.013-.305 10.032-.57 15.029-1.057 7.013-.683 14.031-1.363 20.963-2.724 4.192-.823 8.425-1.434 12.64-2.132 2.729-.452 5.459-.888 8.189-1.331zM58.02 281.968c9.109 1.533 18.282 2.361 27.521 2.029 4.414-.158 8.821-.57 13.225-.949 2.985-.258 5.968-.591 8.935-1.008 9.637-1.354 18.822-4.312 27.801-7.973.179-.074.329-.222.487-.348-4.362.956-8.711 1.983-13.091 2.847-5.736 1.13-11.493 2.154-17.249 3.174-4.061.72-8.138 1.345-12.205 2.035-3.63.616-7.272.968-10.965.884-1.792-.041-3.593.141-5.384.302-2.641.236-5.224-.173-7.829-.503-4.755-.603-9.523-1.091-14.289-1.601-.471-.051-.958.041-1.439.085 1.493.35 2.973.771 4.482 1.026zm-10.978-2.852c4.092.472 8.199.818 12.296 1.258 3.202.343 6.412.651 9.592 1.149 3.206.502 6.402.635 9.632.422 2.465-.163 4.94-.174 7.404-.337 1.943-.129 3.89-.306 5.813-.604 7.114-1.101 14.235-2.171 21.323-3.429 5.608-.996 11.173-2.235 16.751-3.396 1.898-.395 3.778-.879 5.621-1.686-.733.086-1.472.136-2.196.265-4.428.789-8.853 1.596-13.279 2.395-.591.107-1.178.242-1.774.303-6.707.692-13.372 1.766-20.129 2.027-4.414.17-8.814.695-13.227.926-3.663.192-7.337.287-11.004.245-6.665-.075-13.334-.174-19.991-.477-4.032-.183-8.046-.767-12.069-1.17-.854-.085-1.709-.165-2.564-.247a22.805 22.805 0 007.801 2.356zm-6.545-3.678c4.319-.659 8.67-.555 13.012-.717 3.444-.128 6.885-.355 10.329-.476 4.119-.145 8.24-.218 12.36-.333.898-.026 1.802-.037 2.691-.154a171.494 171.494 0 0118.378-1.422c1.647-.038 3.297.066 4.944.033 6.007-.12 11.971-.719 17.904-1.644.214-.033.417-.133.625-.202l-.111-.243c-2.915 0-5.831.063-8.744-.018a83.073 83.073 0 01-6.943-.48c-7.465-.838-14.938-1.076-22.436-.58-4.336.287-8.676.519-13.012.81-1.345.09-2.685.272-4.023.447-9.07 1.19-18.14 2.381-27.207 3.595a31.84 31.84 0 00-4.16.868c2.101.702 4.254.843 6.393.516zm-2.878-1.62c.781-.1 1.565-.181 2.342-.303 6.295-.988 12.584-2.02 18.885-2.97 7.043-1.062 14.128-1.671 21.243-2.09 6.294-.371 12.572-.444 18.861-.079 1.195.069 2.398.135 3.578.324 4.975.798 9.978.952 15.006.887 5.542-.072 11.085.046 16.626-.033 2.721-.038 5.439-.33 8.52-.532-5.818-.766-11.717-.97-17.573-1.131-6.607-.181-13.212-.471-19.783-1.207a.246.246 0 01-.176-.104c-1.463.073-2.926.168-4.387.223-3.066.115-6.131.254-9.196.381-2.166.09-4.334.158-6.499.274-2.84.153-5.678.341-8.517.52-.523.033-1.043.102-1.566.143-3.507.27-7.015.538-10.522.805-.224.018-.451.004-.674.031-6.32.767-12.688 1.151-18.946 2.425-2.497.508-4.876 1.343-7.222 2.436zm106.831-6.143c-13.086-3.291-26.375-4.678-39.867-4.652-11.815.023-23.506 1.074-35.128 3.094-3.474.604-6.955 1.164-10.42 1.814-1.906.357-3.786.86-5.652 1.411 2.521-.193 5.043-.369 7.561-.584 5.3-.452 10.593-1.013 15.899-1.364 6.2-.411 12.397-.922 18.624-.819 1.867.031 3.745-.154 5.606-.35 6.37-.667 12.714-.178 19.063.314 1.269.098 2.539.182 3.809.272.663.014 1.326.022 1.989.043 5.604.17 11.173.518 16.696 1.423l2.983-.15c-.386-.159-.763-.352-1.163-.452zm2.032 2.964l7.222-.414c-1.781-.895-2.229-.882-7.222.414zm5.51-5.702a4.216 4.216 0 002.051 1.809l-1.963-1.917c-.382-.454-.712-.966-1.153-1.351-4.733-4.139-9.47-8.272-14.245-12.362-.661-.567-1.511-.939-2.32-1.296-.148-.065-.343-.021-.547.041l1.647 1.528a3.81 3.81 0 011.267 1.175c.559.519 1.131 1.024 1.692 1.541 1.008.746 2.014 1.493 2.993 2.276 3.541 2.832 7.054 5.702 10.578 8.556zm3.335-17.055c4.716.085 9.425.709 14.14.751 6.903.062 13.773.749 20.659.89 5.782.117 11.503.942 17.273 1.038 4.8.08 9.596.029 14.372-.528 3.426-.399 6.867-.699 10.274-1.22 4.891-.748 9.757-1.656 14.632-2.501.584-.102 1.16-.241 1.837-.383-4.904.074-9.62.104-14.333.229-3.296.088-6.604.152-9.878.494-9.288.968-18.561.715-27.837-.085-7.54-.65-15.067-1.54-22.62-1.948-8.375-.452-16.769-.819-25.165-.41-1.27.062-2.531.295-3.797.445-3.798.451-7.595.899-11.392 1.351a2.677 2.677 0 00-.786.193c7.537.686 15.047 1.548 22.621 1.684zm-20.602 8.984c1.281.597 2.579 1.158 3.87 1.732-1.21-.838-2.43-1.663-3.622-2.526-.633-.459-1.214-.991-1.817-1.492-.731-.318-1.502-.567-2.184-.969-4.974-2.931-9.849-6.044-14.911-8.813-8.424-4.605-17.06-8.783-25.869-12.628-7.9-3.449-15.629-7.291-23.446-10.931a1080.256 1080.256 0 00-13.509-6.162c-.69-.31-1.461-.442-2.202-.64 1.306.791 2.592 1.616 3.925 2.36 11.788 6.58 23.639 13.042 35.772 18.975 3.368 1.647 6.684 3.405 9.968 5.214 7.569 4.171 15.572 7.399 23.44 10.925 3.555 1.593 7.054 3.309 10.585 4.955zm-10.52-13.183c-.364-.309-.727-.673-1.143-.961-4.93-3.42-9.819-6.904-14.826-10.208-2.558-1.689-5.266-3.188-8.024-4.53-5.257-2.559-10.518-5.139-15.924-7.351-7.079-2.897-14.361-5.24-21.807-7.068-3.709-.911-7.343-2.126-11.013-3.198-.683-.2-1.374-.374-2.061-.56 12.417 5.346 24.886 10.496 37.049 16.335 12.172 5.843 24.121 12.111 35.178 19.494l2.571-1.953zM49.71 214.898c20.198 13.956 42.433 24.415 64.825 34.451 5.902 2.645 11.92 5.024 17.852 7.599l.159-.024c-.388-.316-.743-.694-1.177-.92-1.193-.624-2.395-1.247-3.642-1.751-12.226-4.945-24.034-10.749-35.751-16.801-13.705-7.079-27.375-14.207-40.759-21.877-.469-.269-.923-.764-1.507-.677zm84.393 42.805l.098.043c-.008-.027-.059-.057-.104-.087l.006.044zm-90.294-45.516c6.398 5.244 13.336 9.695 20.351 14.058a471.4 471.4 0 0024.717 14.343c7.869 4.255 16.229 7.407 24.618 10.468 3.661 1.337 7.294 2.75 10.95 4.1 2.594.958 5.206 1.869 7.81 2.8l.794.176a39.73 39.73 0 00-.364-.154c-5.455-2.182-10.84-4.543-16.229-6.877-6.402-2.773-12.81-5.508-19.142-8.442a462.677 462.677 0 01-7.855-3.737 598.322 598.322 0 01-4.334-1.904c-.502-.223-.942-.586-1.389-.931l-.62-.31c-.282-.03-.572-.047-.803-.172-4.986-2.7-9.966-5.412-14.926-8.159a3.594 3.594 0 01-.729-.565c-.536-.307-1.074-.61-1.607-.921a1.455 1.455 0 01-.325-.149c-.22-.142-.438-.288-.658-.43a309.866 309.866 0 01-3.791-2.255 235.618 235.618 0 01-16.75-11.192c.095.082.184.173.282.253zm-1.86-3.639c3.147 1.628 6.252 3.348 9.456 4.857 9.285 4.371 18.608 8.661 27.924 12.968 4.351 2.012 8.683 4.073 13.086 5.964 8.133 3.494 15.981 7.558 23.807 11.673.189.099.387.181.582.269-.052-.182.03-.367.183-.489-.026-.017-.049-.039-.075-.056-14.22-8.991-29.276-16.376-44.699-23.019-9.077-3.91-18.261-7.573-27.407-11.319-.915-.374-1.9-.578-2.857-.848zm84.513 33.721c-6.987-5.426-13.915-10.936-21.572-15.426-13.584-7.966-28.137-13.334-43.593-16.279a2118.2 2118.2 0 00-14.141-2.631c-.408-.075-.834-.051-1.254-.062.235.13.461.29.712.36 6.785 1.881 13.573 3.753 20.362 5.621 9.556 2.629 18.917 5.781 27.766 10.317 1.868.957 3.821 1.754 5.649 2.779 3.331 1.867 6.704 3.693 9.868 5.82 5.159 3.467 10.165 7.161 15.398 10.876l1.521-.595c-.317-.35-.487-.603-.716-.78zm-.518 5.321c-.04-.01-.106.093-.281.255 1.441.95 2.837 1.91 4.271 2.808 3.613 2.262 7.24 4.501 10.872 6.732.076.047.167.071.251.105-3.187-2.704-6.35-5.44-9.428-8.265-1.84-.716-3.767-1.163-5.685-1.635zm118.904-7.44c-7.932-1.652-15.987-2.466-24.009-3.492-10.415-1.333-20.872-1.988-31.378-1.68-.973.029-1.946.036-2.918.073-.215.008-.427.1-.916.223 20.279 3.529 40.515 4.422 60.785 5.271-.521-.133-1.038-.286-1.564-.395zm3.153 1.534c-3.125-.169-6.25-.325-9.373-.51-7.549-.446-15.102-.828-22.643-1.379-9.864-.721-19.658-2.076-29.433-3.561-1.332-.203-2.675-.336-4.015-.475-2.544-.264-5.075-.257-7.611.182-3.471.601-6.958 1.111-10.437 1.665-.401.064-.797.158-1.176.503.575.026 1.151.096 1.724.072 10.708-.458 21.419-.611 32.085.605 5.203.593 10.378 1.487 15.534 2.421 4.442.804 8.899 1.241 13.403 1.231 4.942-.011 9.885-.039 14.826-.121 2.376-.04 4.749-.22 7.123-.336l-.007-.297zm6.837.757c-4.791.199-9.577.497-14.369.667-4.342.154-8.689.165-13.033.286-4.585.127-9.138-.105-13.648-.988-2.06-.403-4.126-.778-6.187-1.172-6.709-1.283-13.465-2.23-20.299-2.356-7.189-.133-14.389-.276-21.572-.048-6.217.198-12.404.956-18.464 2.536-2.172.566-4.427.804-6.63 1.261-3.963.823-7.917 1.695-11.873 2.553-.353.077-.694.208-1.041.314l.07.471c.413-.034.829-.045 1.238-.105 2.517-.371 5.032-.765 7.55-1.128 1.113-.161 2.242-.22 3.35-.406 6.606-1.113 13.254-1.451 19.945-1.216 6.964.243 13.934.261 20.879.996 6.78.719 13.575 1.308 20.37 1.881 6.959.586 13.919.593 20.884-.027 5.899-.524 11.814-.724 17.743-.699 4.42.019 8.838-.247 13.222-.954 2.653-.428 5.335-.668 8.043-.997-2.01-.705-4.079-.956-6.178-.869zm-.475 2.736l.005.146c.313-.03.628-.046.939-.092 1.289-.192 2.577-.394 3.866-.591l-.032-.197-4.778.734zm6.063.278c-5.791.805-11.586 1.593-17.372 2.44-2.371.347-4.715.874-7.084 1.238-3.48.534-6.966 1.049-10.461 1.472-2.677.324-5.37.523-8.06.728-5.689.434-11.373.296-17.061-.141-3.432-.263-6.88-.328-10.319-.517-5.011-.277-10.019-.604-15.03-.877-6.656-.363-13.312-.739-19.972-1.026-4.94-.213-9.883-.329-14.794-.983-.543-.072-1.108.015-1.665.045 1.021.329 2.035.682 3.067.977a75.12 75.12 0 0011.889 2.373c4.091.481 8.145 1.291 12.239 1.724 3.583.379 7.146.813 10.664 1.585 3.231.709 6.484 1.094 9.806 1.101 3.819.009 7.636.293 11.455.379 5.117.116 10.175-.565 15.217-1.317 4.227-.63 8.435-1.381 12.657-2.045 6.222-.977 12.492-1.711 18.662-2.948 5.351-1.073 10.808-1.756 15.991-3.618.978-.351 2.034-.486 3.038-.936-.955.114-1.913.214-2.867.346zm-107.471 7.029c3.299.663 6.587 1.384 9.898 1.98 11.52 2.074 23.141 3.357 34.819 4.032 3.726.215 7.491-.03 11.227-.251 7.495-.443 14.921-1.524 22.297-2.88 3.159-.581 6.26-1.522 9.349-2.43 3.664-1.078 7.289-2.29 10.926-3.462a4.805 4.805 0 001.585-.863c-2.809.604-5.613 1.24-8.431 1.799-2.057.409-4.121.836-6.203 1.043a118.757 118.757 0 00-12.878 2.006c-6.752 1.428-13.592 2.331-20.463 3.019-5.77.577-11.527.144-17.292.092-4.678-.041-9.247-.7-13.819-1.57-2.423-.461-4.898-.648-7.348-.969-2.823-.368-5.646-.73-8.464-1.129-1.699-.241-3.388-.545-5.081-.82l-.122.403zm91.324-136.875c-.188.667-.427 1.326-.523 2.005-.241 1.706-.392 3.425-.601 5.136-.444 3.645-.857 7.295-1.366 10.931-.676 4.83-1.253 9.667-1.237 14.552.006 1.872.092 3.751.277 5.614.281 2.828.68 5.644 1.283 8.472.262-2.154.514-4.309.788-6.461 1.071-8.416 1.482-16.871 1.489-25.348.002-1.721-.239-3.442-.241-5.164-.004-3.245.081-6.491.131-9.737zm1.131-7.473l-.764 3.295c.711-1.013.828-2.138.764-3.295zm1.217-3.921c-.028-.215-.131-.42-.363-.62.028.628.057 1.256.081 1.885a25.364 25.364 0 01-.458 6.033c-1.008 5.029-1.103 10.103-.803 15.216.193 3.285.097 6.587.113 9.881.037 7.737-.84 15.4-1.794 23.063-.351 2.818-.402 5.678-.492 8.522-.032 1.034.114 2.104.363 3.111 1.477 5.964 3.228 11.854 4.427 17.893.952 4.797 2.975 9.271 4.853 13.763 3.306 7.906 7.455 15.369 12.203 22.494 1.868 2.804 3.89 5.507 5.881 8.228.189.258.413.49.638.722a44.526 44.526 0 01-1.369-2.221c-.634-1.096-1.281-2.19-1.913-3.291a664.072 664.072 0 01-7.237-12.003c-2.283-3.896-3.773-8.141-5.38-12.346-2.965-7.759-4.78-15.776-5.687-23.997-.369-3.341-.33-6.728-.45-10.094-.236-6.672.246-13.324.576-19.98.174-3.514.416-7.029.463-10.545.044-3.29-.079-6.585-.214-9.874-.358-8.716-2.311-17.224-3.438-25.84zm7.867 66.352c-.03-5.547-.173-11.095-.148-16.642.029-6.315-.467-12.597-1.34-18.831-.56-3.995-1.673-7.913-2.542-11.864-.16-.731-.342-1.458-.704-2.16.122.792.293 1.58.356 2.376.232 2.912.35 5.834.653 8.738.558 5.33-.127 10.628-.282 15.939-.164 5.615-.521 11.228-.576 16.844-.075 7.643-.108 15.292 1.488 22.841 1.086 5.143 2.317 10.232 4.257 15.131 1.158 2.925 2.265 5.871 3.42 8.799.238.603.587 1.162.885 1.742l.181-.077c-.279-.919-.568-1.835-.835-2.757-1.697-5.86-2.359-11.912-3.26-17.914-.6-4.004-.978-8.039-1.494-12.055-.434-3.372-.041-6.74-.059-10.11zm-1.634-42.309c-.207-4.429-1.51-8.646-2.507-12.922.16 4.438 1.724 8.604 2.507 12.922zm20.222 92.876c-1.1-4.165-1.347-8.441-1.659-12.7-.82-11.223-.775-22.474-1.019-33.717-.139-6.447-.509-12.891-1.426-19.283-1.017-7.085-3.086-13.9-5.456-20.629-2.645-7.505-5.761-14.811-9.395-21.893-.247-.482-.563-.929-.857-1.388.428 1.134.841 2.273 1.292 3.396 2.401 5.981 5.055 11.873 7.157 17.957 2.494 7.216 5.04 14.458 6.086 22.082.918 6.689 1.408 13.408 1.273 20.173-.116 5.844.053 11.694-.119 17.535-.149 5.037.249 10.037.574 15.045.333 5.124 1.488 10.08 3.229 14.902.175.486.411.951.777 1.393-.148-.959-.211-1.94-.457-2.873zm.258 5.32c-2.099-5.233-3.983-10.559-4.437-16.209-.45-5.596-.954-11.195-.807-16.832.145-5.542.061-11.088.09-16.633.01-1.947.169-3.9.066-5.841-.246-4.638-.518-9.279-.951-13.903-.363-3.889-1.335-7.677-2.472-11.411-1.419-4.659-2.647-9.392-4.368-13.939-2.614-6.91-5.474-13.727-8.278-20.566a125.706 125.706 0 014.403 15.769c1.968 9.342 3.33 18.826 4.734 28.266 1.432 9.634 2.662 19.311 3.134 29.045.465 9.579.459 19.237 3.017 28.557 2.101 7.656 5.494 14.836 9.185 21.847-1.11-2.715-2.225-5.428-3.316-8.15zm-5.402-9.24c-3.078-9.007-3.78-18.26-4.118-27.706a284.756 284.756 0 00-2.528-29.03c-1.358-9.772-2.796-19.568-4.613-29.266-1.808-9.643-4.383-19.074-8.122-28.134a2.52 2.52 0 00-.39-.304c.23.844.436 1.695.695 2.53.622 2.003 1.279 3.995 1.897 6 .131.424.17.879.221 1.324.171 1.482.245 2.98.507 4.445.567 3.17 1.211 6.327 1.855 9.482.929 4.548 1.946 9.078 2.813 13.637.686 3.609 1.145 7.26 1.811 10.872.844 4.579 1.457 9.182 1.705 13.829.075 1.413-.044 2.841-.118 4.259-.212 4.039-.481 8.075-.652 12.116-.051 1.189.093 2.395.246 3.581.853 6.626 2.344 13.132 3.691 19.667.893 4.325 2.112 8.579 3.591 12.74.726 2.045 1.4 4.257 2.425 6.174.318.594.791 1.039 1.17 1.586.578.832.935 1.821 1.429 2.706 2.139 3.826 4.275 7.654 6.407 11.484.042.077.06.168.076.26.204.289.404.582.616.867.047-.087.075-.171.096-.254-4.028-7.395-7.982-14.88-10.71-22.865zm11.869 25.52c-.096-.175-.198-.347-.296-.522a35.929 35.929 0 01-3.781-5.138c-.063-.098-.135-.19-.196-.289-5.215-8.519-10.132-17.18-12.349-27.061-1.116-4.971-2.211-9.947-3.179-14.948a160.79 160.79 0 01-1.701-10.874c-.236-1.918-.21-3.886-.115-5.822.178-3.589.728-7.174.689-10.757-.045-4.183-.416-8.377-.9-12.537-.512-4.39-1.26-8.756-2.027-13.111-.559-3.167-1.317-6.298-2.085-9.443.047.574.081 1.149.144 1.721.828 7.451 1.501 14.904 1.33 22.421-.118 5.24.173 10.492-.006 15.728-.167 4.893.074 9.72.812 14.557.893 5.851 1.546 11.738 2.4 17.596.963 6.602 3.282 12.745 6.614 18.509.478.827.975 1.643 1.469 2.461.106.041.159.134.149.25.814 1.343 1.633 2.684 2.435 4.034.387.65.719 1.331 1.069 2.002l.073.12c.62 1.016 1.235 2.034 1.942 2.992.364.493.748.968 1.141 1.436.294.274.579.554.825.865 1.654 2.097 3.236 4.249 4.907 6.332.511.638 1.19 1.14 1.806 1.694-.388-.74-.77-1.483-1.17-2.216zm25.799-71.884c-.172.912-.389 1.819-.495 2.739-1.062 9.228-2.139 18.454-3.137 27.688-.672 6.221-.481 12.425.801 18.568 1.259 6.034 2.945 11.926 5.848 17.414a2746.706 2746.706 0 018.878 16.916c2.025 3.891 4.828 7.212 7.598 10.563.141.171.285.339.707.261-.123-.239-.243-.481-.372-.717-2.841-5.192-5.707-10.37-8.519-15.578-4.074-7.542-7.191-15.491-9.723-23.659-1.471-4.743-2.003-9.668-2.093-14.634-.019-1.049-.025-2.102-.133-3.144-.475-4.591.46-9.115.611-13.675.154-4.64.508-9.275.553-13.914.028-2.941-.33-5.885-.524-8.828zm.311 40.119c.13 7.921 2.176 15.389 5.092 22.694 2.617 6.557 5.484 12.971 9.06 19.077 2.879 4.914 5.468 9.996 8.28 14.951 1.403 2.473 3.434 4.418 5.785 6.017-.714-1.177-1.415-2.363-2.15-3.527-1.8-2.851-3.634-5.68-5.419-8.54-.833-1.335-1.527-2.758-2.378-4.081-4.259-6.618-7.089-13.867-9.49-21.309-1.797-5.572-3.494-11.185-4.278-16.995-.541-4.005-.728-8.06-.998-12.098-.285-4.262-.488-8.531-.715-12.797-.374-7.035-.701-14.073-1.134-21.105-.115-1.859-.543-3.698-.979-5.556-.004 1.028-.056 2.059-.004 3.083.106 2.097.349 4.189.386 6.285.04 2.319-.077 4.64-.142 6.96-.09 3.221-.18 6.443-.3 9.664-.05 1.347-.075 2.707-.286 4.033-.702 4.405-.403 8.824-.33 13.244zm22.99 52.266l-.094.014.047.105.047-.119zm-.69-1.745c-.061-.097-.127-.191-.191-.286.082.22.149.445.233.664a52.913 52.913 0 00-.058-.392c.007.004.009.01.016.014zm-21.802-98.927c.094.612.13 1.241.292 1.835 1.008 3.705 1.523 7.468 1.685 11.309.166 3.965.622 7.917.853 11.88.427 7.329.838 14.66 1.151 21.995.295 6.927 1.421 13.696 3.325 20.359 1.649 5.77 3.386 11.509 5.837 16.991 1.343 3.003 2.88 5.926 4.46 8.814 1.304 2.383 2.762 4.681 4.169 7.008a40.913 40.913 0 01-.901-2.744c-.063-.115-.143-.223-.196-.343-3.334-7.541-6.137-15.292-8.966-23.03-.641-1.751-1.074-3.591-1.459-5.42-.803-3.813-1.496-7.648-2.262-11.469-.324-1.615-.784-3.205-1.069-4.826-.664-3.778-.741-7.596-.717-11.424.027-4.343.03-8.689-.096-13.03-.061-2.09-.393-4.179-.689-6.256-.933-6.534-2.136-13.015-3.984-19.361a4.792 4.792 0 00-1.433-2.288zm3.952 8.912c.16.884.331 1.769.541 2.643 1.957 8.138 2.827 16.39 2.492 24.752-.274 6.844.049 13.623 1.554 20.334.819 3.655 1.429 7.356 2.171 11.029.97 4.797 2.762 9.332 4.523 13.873 2.005 5.167 4.067 10.312 6.081 15.476.239.613.342 1.28.506 1.923.656.395.657 1.072.719 1.722l-.008.001c.42.672.897 1.316 1.24 2.024a47.73 47.73 0 005.074 8.211c.445.583.956 1.115 1.708 1.519-.311-.729-.622-1.457-.932-2.187-2.133-5.036-4.323-10.049-6.383-15.114-2.373-5.838-4.006-11.925-5.848-17.942-3.214-10.499-5.197-21.244-6.601-32.115-.998-7.731-2.09-15.449-3.122-23.176-.707-5.295-2.341-10.351-4.094-15.403.125.81.232 1.623.379 2.43zm8.304 16.435c-1.2-5.532-3.379-10.665-6.401-15.445.508 2.087.967 4.188 1.539 6.258 1.041 3.769 1.435 7.642 2.019 11.489 1.764 11.617 2.799 23.34 5.091 34.881a153.314 153.314 0 003.582 14.365 663.894 663.894 0 004.402 14.136c.55 1.69 1.329 3.306 2.019 4.951-.876-3.244-1.682-6.508-2.66-9.72-1.091-3.579-2.403-7.091-3.516-10.664a57.603 57.603 0 01-1.525-6.1c-.933-4.78-1.847-9.571-2.263-14.428-.32-3.729-.493-7.473-.646-11.214-.162-3.966-.096-7.944-.379-11.899-.158-2.223-.786-4.416-1.262-6.61zm20.924 87.341c-4.328-7.95-7.572-16.285-9.48-25.154-1.767-8.215-3.439-16.444-4.331-24.804-.54-5.066-.903-10.153-1.279-15.236-.503-6.773-2.12-13.301-4.285-19.774.905 5.839.595 11.773.835 17.677.319 7.879 1.097 15.701 2.674 23.429.915 4.481 2.313 8.83 3.792 13.158 1.209 3.541 2.19 7.159 3.352 10.716 1.581 4.838 3.247 9.648 4.857 14.477a52.517 52.517 0 003.864 8.843c.825 1.491 1.824 2.832 3.531 4.04-1.273-2.676-2.287-5.087-3.53-7.372zm28.688 28.492c-3.167-2.697-6.478-5.225-9.76-7.785-.565-.441-1.284-.685-1.931-1.021l-.183-.12.17.137c1.081 1.123 2.061 2.372 3.263 3.345 4.244 3.435 8.564 6.777 12.859 10.148.144.114.321.185.491.266-1.625-1.672-3.143-3.466-4.909-4.97zm16.483-27.428c-.015 5.229 1.344 10.205 2.615 15.224 1.519 5.995 3.948 11.61 6.546 17.176.181.386.406.752.793 1.062-3.623-13.818-6.909-27.69-9.695-41.697-.383 2.737-.251 5.488-.259 8.235zm8.186-50.274c-.06.266-.086.541.172.891.41-1.258.886-2.499 1.217-3.776.803-3.091 1.618-6.185 1.67-9.412-.202.468-.481.918-.595 1.407-.841 3.625-1.65 7.258-2.464 10.89zm3.06-12.301l.541-2.226c-.555.644-.653 1.408-.541 2.226zm4.091-16.781c-.874 1.186-.889 2.161-1.034 3.069-1.056 6.582-2.081 13.168-3.131 19.75-.13.813-.293 1.627-.529 2.414-1.466 4.879-2.975 9.744-4.432 14.625-.835 2.797-1.724 5.587-2.368 8.429-1.059 4.675-1.938 9.39-2.894 14.087-.44 2.161-.35 4.323-.004 6.484.415 2.59.834 5.18 1.254 7.77.589 3.629 1.357 7.209 2.523 10.709a29.09 29.09 0 011.217 5.252c.591 4.336 2.083 8.431 3.183 12.63.665 2.536 1.299 5.08 1.923 7.627.7 2.853 1.62 5.607 3.237 8.099 1.223 1.885 2.359 3.827 3.562 5.725.22.347.554.622.846.923-.399-1.091-.71-2.226-1.228-3.257-2.842-5.662-4.732-11.65-6.189-17.788-1.108-4.664-2.331-9.308-3.241-14.011-.839-4.335-1.398-8.728-1.95-13.113-.421-3.343-.618-6.713-.95-10.068-.459-4.64-.369-9.269.047-13.911.67-7.488 1.976-14.841 4.19-22.036 1.212-3.938 2.207-7.941 3.391-11.888 1.494-4.985 2.091-10.12 2.616-15.26.195-1.914-.011-3.868-.039-6.261zm.741 9.778c-.249 1.053-.511 2.104-.743 3.161-.676 3.072-1.242 6.171-2.027 9.214-1.684 6.534-3.685 12.993-5.173 19.569-1.758 7.766-2.697 15.685-2.389 23.661.402 10.434 1.655 20.797 3.824 31.009 1.54 7.254 3.208 14.511 5.915 21.443 1.657 4.242 3.665 8.347 5.888 12.375-.444-1.392-.827-2.806-1.341-4.172-2.272-6.045-4.017-12.24-5.511-18.52-1.916-8.05-2.883-16.227-3.775-24.434-.782-7.197-.332-14.374-.195-21.563.072-3.751.331-7.484.882-11.2.528-3.566 1.161-7.103 2.246-10.547 1.705-5.414 2.26-11.002 2.489-16.634.135-3.294.216-6.591.239-9.887.009-1.157-.206-2.317-.329-3.475zm.884-5.893c-.047-.29-.138-.574-.399-.843.071 1.537.082 3.08.225 4.611.728 7.799.381 15.578-.493 23.334a45.602 45.602 0 01-1.553 7.7 86.16 86.16 0 00-3.449 21.7 748.952 748.952 0 00-.328 14.606c-.022 1.945.038 3.907.273 5.836.825 6.772 1.508 13.573 2.686 20.286 1.413 8.051 3.61 15.927 6.48 23.602 1.024 2.737 1.895 5.531 2.897 8.276.613 1.682 1.315 3.337 2.632 4.591-1.424-4.1-2.946-8.169-4.235-12.311a60.703 60.703 0 01-1.896-8.09c-1.031-6.215-2.028-12.44-2.79-18.692-.461-3.781-.647-7.62-.621-11.43.058-8.463.383-16.923.492-25.386.098-7.656.754-15.269 1.525-22.875.522-5.154.526-10.32.619-15.489.118-6.569-1.006-12.991-2.065-19.426zm4.104 9.409c-.1-.274-.249-.53-.376-.795l-.316.016c.282 1.833.436 3.697.877 5.492.593 2.414.987 4.832 1.111 7.315.123 2.467.295 4.94.623 7.386.653 4.866.187 9.72.065 14.583-.231 9.145-1.41 18.214-2.089 27.323-.194 2.612-.722 5.206-.81 7.818-.112 3.363.013 6.737.126 10.102.259 7.67 1.791 15.174 3.098 22.702.536 3.085 1.318 6.129 2.092 9.18-.353-2.291-.715-4.58-1.056-6.873-1.361-9.153-1.734-18.323-.814-27.557.392-3.942.254-7.933.459-11.897.286-5.535.685-11.064 1.003-16.597.3-5.233.726-10.467.789-15.704.065-5.462.054-10.948-.819-16.369-.881-5.479-2.064-10.892-3.963-16.125zm9.059 31.494c-.004-4.168-.9-8.19-2.107-12.147-.653-2.142-1.417-4.249-2.433-6.327.023.299.027.6.072.895 1.331 8.787 1.522 17.613.925 26.468-.373 5.534-.594 11.081-1.102 16.603-.544 5.906-.657 11.823-.882 17.739-.118 3.07-.372 6.134-.563 9.201-.295 4.731-.01 9.453.525 14.143a184.154 184.154 0 002.079 13.79c.788 4.115 1.932 8.161 2.919 12.237l.233-.12c-.147-.962-.319-1.92-.439-2.885-.521-4.166-1.051-8.331-1.522-12.503-.143-1.262-.097-2.545-.155-3.817-.309-6.888-.641-13.774-.931-20.663-.446-10.61.429-21.123 2.537-31.524.723-3.563.701-7.156.799-10.747.094-3.445.048-6.895.045-10.343zm.302 46.325c.563-1.567.69-3.186.592-4.834-.662 1.554-.61 3.196-.592 4.834zm.167-7.871c.253-2.304.63-4.596.842-6.904.466-5.07.961-10.14 1.261-15.22.31-5.248.085-10.482-1.425-16.03-.1.939-.201 1.489-.211 2.041-.082 4.641-.086 9.285-.247 13.924-.062 1.785-.408 3.568-.725 5.333-1.258 7.009-2.337 14.05-2.555 21.169-.153 5.007.098 10.028.218 15.042.083 3.443.239 6.884.387 10.325.042.967.171 1.931.362 2.887.262-5.221.522-10.443.79-15.664.055-1.085.139-2.168.211-3.253l-.022-.03c-.049-.522-.183-1.052-.133-1.563.394-4.021.807-8.041 1.247-12.057zm-1.682 55.621c-1.445-3.086-2.256-6.357-3.104-9.614-1.871-7.184-3.297-14.464-4.417-21.803-.463-3.036-1.037-6.058-1.386-9.107-.801-7.015-.888-14.019-.085-21.073 1.466-12.879 2.568-25.8 2.68-38.775.031-3.512-.362-7.03-.599-10.542-.125-1.869-.329-3.732-.506-5.597a16.259 16.259 0 00-.181-1.337c-.715-3.982-1.434-7.963-2.161-11.943-.105-.58-.254-1.152-.383-1.728l-.332.111c.152 1.633.211 3.281.475 4.897.69 4.238.631 8.508.709 12.777.144 7.959-.652 15.858-1.253 23.779-.613 8.064-.835 16.16-1.149 24.245-.185 4.786-.317 9.58-.292 14.369.022 4.341.133 8.689.813 12.998.901 5.704 1.751 11.416 2.65 17.12.657 4.165 2.035 8.137 3.401 12.101 1.122 3.256 2.392 6.462 3.651 9.669.657 1.672 1.645 3.162 3.069 4.43-.521-1.665-.867-3.412-1.6-4.977zm1.207-6.541c.674 3.746.476 7.668 2.4 11.164l-2.4-11.164zm50.087 74.549c-2.668-3.728-5.587-7.25-8.824-10.491-2.816-2.82-5.516-5.733-7.818-8.985-5.001-7.065-10.809-13.41-16.879-19.563-7.798-7.905-15.591-15.812-23.77-23.322-9.892-9.083-19.987-17.94-30.479-26.327a2747.901 2747.901 0 00-27.562-21.735c-6.988-5.442-14.356-10.354-21.778-15.183-3.709-2.413-7.327-4.974-11.103-7.278a765.876 765.876 0 00-18.979-11.226c-7.619-4.355-15.329-8.55-22.977-12.854-1.564-.879-3.106-1.329-4.928-.975-1.387.269-2.858.102-4.247.365-2.722.514-5.446 1.113-7.977 2.28-6.216 2.867-12.752 4.802-19.265 6.824-6.632 2.059-13.454 2.941-20.319 3.707-5.224.582-10.459.99-15.702.892-4.412-.082-8.828-.458-13.22-.921-13.504-1.421-26.868-3.725-40.143-6.571a84.447 84.447 0 00-9.996-1.509c.787.667 1.602 1.303 2.356 2.004 4.5 4.188 8.976 8.403 13.484 12.583 1.649 1.53 3.352 3.002 5.052 4.475.392.34.846.635 1.317.852 2.449 1.13 4.893 2.276 7.377 3.327 10.365 4.385 20.955 8.158 31.6 11.81 14.845 5.093 29.935 9.231 45.228 12.728 13.008 2.975 25.945 6.263 38.896 9.482 3.635.904 7.224 2.006 10.808 3.103 11.042 3.379 22.07 6.801 33.108 10.195.461.142.953.189 1.433.27-.729-.467-1.425-1.006-2.204-1.368-4.656-2.168-8.799-5.148-12.918-8.155a223.572 223.572 0 01-17.158-13.84c-3.579-3.198-7.161-6.394-10.739-9.594-3.198-2.859-6.091-5.999-8.634-9.454-4.222-5.736-8.414-11.494-12.639-17.228-.888-1.205-1.872-2.341-2.803-3.515-.318-.401-.611-.822-.855-1.151.118-.795.525-1.027 1.136-.941.219.03.433.117.643.197 8.145 3.103 16.069 6.657 23.466 11.32 5.553 3.501 10.536 7.684 15.12 12.362 5.956 6.076 11.003 12.869 15.804 19.869a325.396 325.396 0 008.802 12.23c1.393 1.842 3.083 3.467 4.711 5.119.555.564 1.337.904 2.008 1.357.868.587 1.804 1.101 2.58 1.792 5.497 4.897 11.862 8.389 18.492 11.439 2.584 1.188 5.26 2.177 7.864 3.327 1.089.481 2.066 1.21 3.147 1.714 10.42 4.855 20.362 10.573 30.144 16.587 14.073 8.653 27.56 18.133 40.574 28.312 8.992 7.033 17.505 14.593 25.772 22.448 2.719 2.583 5.481 5.12 8.237 7.664.298.276.666.475 1.01.701-.503-.865-.961-1.763-1.533-2.58-1.545-2.21-3.15-4.377-4.72-6.569zm6.856 6.352c-.913-1.451-1.84-2.89-3.319-3.845l3.217 3.965c1.526 2.214 2.995 4.472 4.603 6.625.8 1.071 1.823 1.975 2.761 2.943-2.163-3.422-4.506-6.71-7.262-9.688zm41.202 59.098c-.079-.163-.282-.266-.548-.505.057.373.035.608.129.781 1.257 2.349 2.173 4.892 3.926 6.958-1.166-2.413-2.328-4.827-3.507-7.234zm10.331 23.32c-4.979-9.128-9.977-18.245-14.976-27.362a11.767 11.767 0 00-1.323-1.968c.674 2.39 1.739 4.59 2.933 6.741 1.96 3.53 3.818 7.116 5.817 10.623 2.591 4.548 5.274 9.044 7.931 13.554.167.283.422.513.65.761-.336-.788-.624-1.601-1.032-2.349zm5.66 11.424c.373 1.347.925 2.602 1.88 3.65-.209-1.431-.791-2.671-1.88-3.65zm2.179 5.334l-.193.189.374.585.263-.038.247-.308-.691-.428zM267.841 218.42l.019.126c-.015-.032-.032-.064-.046-.096l.027-.03zM179.699 91.131l.094-.008.299 1.941-.094.009-.299-1.942zm-.524 18.891a1.864 1.864 0 01-.047.076l.047-.076c-.019.16-.012.104 0 0zm-.47 2.213c.055-.09.086-.139 0 0zm-1.554 16.81l-.009-.081c.01-.025.01-.049.019-.074l.015.094c-.011.021-.015.041-.025.061z"/></svg>