<svg xmlns="http://www.w3.org/2000/svg" viewBox="0 0 458 340"><path fill-rule="evenodd" opacity=".431" fill="#C1C1CD" d="M456.135 335.654c-.585-.071-1.149-.358-1.708-.587-17.963-7.351-35.302-15.911-51.802-26.156-11.471-7.123-22.605-14.692-32.962-23.361a115.683 115.683 0 01-16.237-16.652c-6.468-8.109-11.637-17.091-17.444-24.976.747 1.586 1.686 3.683 2.709 5.739 2.922 5.873 5.671 11.821 7.743 18.049 1.361 4.088 2.659 8.201 3.818 12.349.809 2.896 1.636 5.842 1.932 8.817.958 9.637.954 19.282-.884 28.838-1.336 6.951-2.362 13.928-2.535 21.014-.005.233-.203.46-.375.824l-1.51.204c-.528-.839-1.09-1.6-1.513-2.431-1.175-2.305-2.366-4.607-3.418-6.968-3.23-7.247-6.45-14.5-9.572-21.793-2.172-5.071-4.304-10.168-5.529-15.578a142.771 142.771 0 01-3.478-35.403c.134-5.159-.042-10.337-.322-15.493-.224-4.124-.743-8.238-1.274-12.338-.364-2.815-.734-5.666-1.52-8.381-1.562-5.394-3.688-10.567-7.269-15.023-.917-1.142-1.71-2.382-2.566-3.573-5.591-7.775-11.217-15.517-17.608-22.681-2.927-3.281-5.86-6.596-8.41-10.165-5.543-7.758-11.865-14.791-18.759-21.362-5.186-4.943-10.253-10.01-15.314-15.08-1.664-1.667-3.388-3.145-5.589-4.099-2.071-.898-3.904-2.16-5.261-4.075-.52-.735-1.437-1.218-2.228-1.731-2.249-1.455-4.524-2.871-6.795-4.292-.436-.273-.901-.498-1.81-.996.674.866.973 1.284 1.307 1.672 5.982 6.963 11.035 14.575 15.723 22.434 1.722 2.887 3.263 5.882 4.884 8.829 4.338 7.886 7.862 16.105 10.494 24.718 2.071 6.776 3.481 13.691 4.803 20.632 1.968 10.335 3.701 20.699 3.784 31.261.093 11.888.189 23.776.28 35.664.006.777.041 1.573-.8 2.157-1.365.399-1.964-.682-2.518-1.613-2.161-3.631-4.348-7.253-6.36-10.966-6.842-12.623-11.077-26.173-14.064-40.133-3.084-14.417-5.243-28.995-7.345-43.579-1.43-9.922-3.625-19.639-7.345-29-2.782-6.998-5.924-13.796-10.247-19.983-6.007-8.601-12.873-16.418-21.283-22.817-4.963-3.776-10.188-7.13-15.608-10.206-11.207-6.361-22.536-12.491-34.389-17.581-5.164-2.218-10.376-4.309-15.401-6.844-2.753-1.389-5.633-2.528-8.457-3.777.639.778 1.24 1.592 1.932 2.319 2.082 2.188 4.217 4.327 6.306 6.509 6.583 6.878 12.053 14.656 17.922 22.108 3.907 4.96 7.286 10.296 10.158 15.902 4.405 8.597 8.594 17.305 12.853 25.976 4.242 8.637 7.201 17.706 9.318 27.08 2.039 9.026 3.513 18.121 3.326 27.388-.175 8.699-.632 17.391-.968 26.087-.013.343.007.707-.099 1.025-.182.545-.453 1.062-.622 1.446-1.176.523-1.903.083-2.487-.609-.441-.523-.777-1.136-1.141-1.721-3.282-5.272-6.445-10.622-9.863-15.806-6.804-10.32-13.012-20.96-18.123-32.218-2.283-5.026-4.601-10.038-6.768-15.113a131.416 131.416 0 01-3.759-9.911 1062.644 1062.644 0 01-6.921-21.405c-2.15-6.911-4.391-13.809-6.175-20.818-2.734-10.743-6.421-21.104-11.399-31.009-2.171-4.321-4.713-8.421-7.516-12.371-1.467-2.068-3.332-3.452-5.73-4.202a85.373 85.373 0 01-3.435-1.183c-3.416-1.233-6.84-2.448-10.24-3.723-3.968-1.488-7.873-3.146-11.877-4.528-12.769-4.408-25.241-9.535-37.501-15.183C30.886 19.487 18.547 13.616 5.656 9.019c-1.433-.51-2.567-1.363-3.261-2.781-.333-.68-.886-1.251-1.315-1.888C.7 3.787.322 3.217.018 2.613c-.084-.168.096-.469.183-.822l2.225.085C3.553.89 3.553.89 5.091.416c.625.503 1.376 1.061 2.076 1.678 4.572 4.024 9.642 7.334 15.211 9.753 6.183 2.686 12.496 5.08 18.79 7.503 12.431 4.786 24.848 9.611 37.345 14.217 11.289 4.161 22.406 8.732 33.445 13.488 15.809 6.811 31.311 14.288 46.658 22.078 2.421 1.229 4.933 2.082 7.606 2.493 1.538.237 3.078.483 4.626.647 8.808.935 17.645.438 26.434.015 8.447-.407 16.848-1.755 25.272-2.67 5.244-.569 10.485-1.169 15.738-1.628 5.785-.506 11.576-.411 17.364.127 14.065 1.309 28.004 3.452 41.731 6.756 9.668 2.327 19.252 5.016 28.836 7.678 4.328 1.203 8.567 2.73 12.843 4.121.638.207 1.399.327 1.322 1.308-.505.857-1.421.849-2.25 1.022-10.663 2.224-21.335 4.405-31.987 6.681-22.553 4.817-45.156 4.786-67.813.829-12.911-2.254-25.428-5.953-37.798-10.193l-24.996-8.57c.77.524 1.511 1.099 2.317 1.559 4.053 2.316 8.154 4.55 12.181 6.909 4.102 2.404 8.157 4.879 12.494 6.863 1.646.753 3.216 1.688 4.762 2.635a309.975 309.975 0 0137.206 26.766c3.442 2.885 6.886 5.768 10.37 8.601.86.699 1.814 1.367 2.835 1.771 4.668 1.847 9.384 3.551 14.393 4.283 2.996.438 5.983.934 8.97 1.425 4.865.8 9.756 1.477 14.585 2.456 12.578 2.548 24.208 7.665 35.585 13.401 4.481 2.258 8.84 4.755 12.833 7.809 13.654 10.443 27.394 20.779 40.883 31.431 12.159 9.602 24.561 18.788 38.376 25.935.398.206.656.681.958 1.007-.489 1.056-1.269 1.013-2.059.938-2.583-.244-5.186-.358-7.744-.757-16.794-2.618-33.303-6.36-49.216-12.456-13.844-5.304-27.254-11.492-39.846-19.335-13.754-8.568-26.438-18.547-38.586-29.232-6.094-5.36-12.272-10.625-18.436-15.906-.672-.575-1.487-.986-2.245-1.462.388.507.75 1.038 1.186 1.499 5.224 5.514 10.497 10.981 15.687 16.525 13.689 14.621 25.45 30.665 35.321 48.063 2.993 5.276 6.872 9.629 11.653 13.341 7.669 5.953 15.816 11.133 24.33 15.783 12.519 6.837 24.951 13.82 37.022 21.435 7.622 4.809 14.779 10.223 21.677 15.977 4.771 3.979 9.357 8.184 13.684 12.655a95.215 95.215 0 0110.861 13.487c1.622 2.435 3.008 5.029 4.443 7.584 2.237 3.985 4.362 8.033 6.65 11.989 2.588 4.475 5.159 8.969 8.402 13.032.29.364.37.895.621 1.536-.649.162-1.124.412-1.562.358zM7.485 5.865c-.7-.835-1.611-1.286-3.213-1.666C5.456 5.407 6.379 5.83 7.485 5.865zM5.08 2.628c.622 1.314 1.669 1.495 2.606 1.822-.559-.839-1.231-1.525-2.606-1.822zm4.192 4.284l2.036 1.068c-.528-.641-1.178-1.052-2.036-1.068zm73.297 31.96c-3.218-1.288-6.586-2.203-9.892-3.272.514.355 1.001.776 1.567 1.003a1975.143 1975.143 0 0016.109 6.394c.356.14.769.137 1.162.184-2.974-1.456-5.88-3.081-8.946-4.309zm9.085 4.364c1.151 1.123 2.705 1.369 4.138 1.881-1.202-1.009-2.631-1.53-4.138-1.881zm79.035 82.738c-3.667-7.308-7.199-14.689-11.077-21.885-3.598-6.677-8.025-12.841-12.943-18.636-1.345-1.585-2.75-3.119-4.13-4.673.316.539.603 1.1.983 1.59 6.027 7.772 11.298 16.03 16.06 24.622 4 7.219 8.071 14.4 12.215 21.579-.367-.867-.687-1.757-1.108-2.597zm15.808 60.301c-.061-1.96-.065-3.924-.193-5.88-.615-9.405-2.44-18.595-5.077-27.63a64.641 64.641 0 00-2.033-5.856c-1.373-3.44-2.705-6.907-4.307-10.243-1.827-3.801-3.925-7.474-5.916-11.197-.609-1.138-1.322-2.225-1.875-3.39-2.48-5.225-5.557-10.113-8.515-15.07-1.28-2.144-2.521-4.312-3.812-6.45-4.279-7.088-8.963-13.898-14.118-20.387-2.198-2.766-4.204-5.687-6.476-8.39a50.296 50.296 0 00-6.839-6.693l4.4 5.721c2.948 3.834 5.503 7.92 7.879 12.122 3.051 5.396 6.107 10.789 9.154 16.187 2.709 4.8 5.33 9.649 8.128 14.396 7.454 12.65 13.364 26.062 19.697 39.267 2.361 4.924 3.681 10.192 5.182 15.403 1.714 5.949 3.362 11.912 4.136 18.082l.585.008zm-.987 15.91c.163-2.38.226-4.168.42-5.941.283-2.596.243-5.135-.584-7.656-.401-1.219-.594-2.516-.785-3.791-1.476-9.833-4.352-19.306-7.472-28.712-.54-1.629-1.312-3.188-2.047-4.746-3.605-7.642-7.158-15.31-10.885-22.893-2.05-4.171-4.379-8.209-6.633-12.279-2.755-4.973-5.587-9.903-8.34-14.878-4.213-7.611-8.297-15.299-13-22.626-1.997-3.113-4.279-6.045-6.452-9.044-.222-.306-.553-.534-.849-.786.829 1.354 1.632 2.726 2.498 4.056 2.874 4.411 5.303 9.063 7.746 13.719 2.64 5.029 5.586 9.899 8.398 14.84.298.524.614 1.04.883 1.579 4.275 8.561 8.528 17.132 12.822 25.683 1.546 3.08 3.322 6.052 4.752 9.182 3.045 6.661 6.03 13.353 8.832 20.118 1.012 2.444 1.424 5.135 2.12 7.71 1.212 4.489 2.511 8.956 3.62 13.47a90.637 90.637 0 011.769 9.116 106.767 106.767 0 002.499 12.399c.082.309.27.591.688 1.48zm-50.626-99.032c3.338 11.135 6.598 22.296 10.122 33.373 1.642 5.16 3.683 10.208 5.796 15.201 2.079 4.918 4.474 9.704 6.738 14.544 3.955 8.453 8.893 16.344 13.984 24.144 3.151 4.827 6.356 9.621 9.71 14.342-.567-1.204-1.053-2.454-1.714-3.604-2.489-4.329-5.039-8.624-7.558-12.935-1.173-2.008-2.35-4.013-3.491-6.039-5.586-9.926-10.496-20.183-15.026-30.623-.684-1.577-1.132-3.254-1.775-4.851-2.127-5.27-4.384-10.49-6.408-15.798-1.194-3.131-2.096-6.376-3.035-9.598-2.411-8.273-5.118-16.442-8.436-24.402-.116-.278-.255-.546-.383-.819l-.378.152c.614 2.305 1.169 4.629 1.854 6.913zm-21.88-49.891c.876 1.251 1.721 2.524 2.637 3.745 4.588 6.114 8.206 12.76 11.025 19.847 2.867 7.207 5.442 14.524 8.78 21.551 3.263 6.869 5.363 14.187 7.492 21.464 1.816 6.209 3.704 12.357 6.431 18.264 2.018 4.371 3.44 9.013 5.15 13.527.611 1.61 1.232 3.221 1.942 4.79 3.661 8.097 7.55 16.086 11.843 23.868 2.539 4.601 5.322 9.067 7.89 13.652 2.105 3.759 4.076 7.592 6.062 11.415.831 1.6 1.546 3.258 2.559 5.413.52-1.768.632-2.974.166-4.208-.213-.564-.475-1.11-.731-1.656-3.15-6.716-6.387-13.394-9.426-20.16-1.975-4.4-3.676-8.923-5.474-13.401-1.253-3.119-2.422-6.272-3.698-9.381-2.75-6.699-5.573-13.368-8.308-20.073-1.334-3.271-2.533-6.597-3.806-9.894a239.907 239.907 0 00-2.093-5.288c-3.752-9.082-7.517-18.159-11.281-27.236a55.27 55.27 0 00-.94-2.13c-2.33-5.005-4.724-9.981-6.982-15.018-2.408-5.368-5.352-10.433-8.491-15.391-2.399-3.787-4.949-7.479-7.349-11.265-.835-1.319-1.866-2.183-3.398-2.435zm7.502 6.93c5.546 8.141 10.609 16.543 14.367 25.679 1.049 2.549 2.296 5.017 3.454 7.521 3.22 6.965 6.241 14.012 8.889 21.215.534 1.455 1.182 2.87 1.821 4.284a262.371 262.371 0 018.556 21.346c.569 1.622 1.303 3.193 2.043 4.749 3.483 7.328 6.206 14.957 9.067 22.532 1.005 2.659 2.094 5.287 3.103 7.944 3.613 9.518 7.895 18.741 12.341 27.893.074.151.198.278.663.92-.463-1.693-.808-2.83-1.083-3.984-.717-3.011-1.657-5.998-2.046-9.053-.753-5.915-2.012-11.699-3.633-17.428-.89-3.146-1.643-6.334-2.388-9.519a58.318 58.318 0 00-3.41-10.283c-1.979-4.493-3.748-9.083-5.864-13.51-3.455-7.231-7.109-14.367-10.696-21.535-2.237-4.471-4.447-8.957-6.779-13.378-1.847-3.502-3.874-6.91-5.799-10.372-1.632-2.936-3.333-5.841-4.822-8.848-2.95-5.958-6.367-11.632-10.122-17.111-2.143-3.126-4.208-6.31-6.48-9.341-1.25-1.667-2.834-3.086-4.279-4.608 1.027 1.633 2.012 3.294 3.097 4.887zm.977-2.256c.658.861 1.302 1.734 1.985 2.574.345.424.769.784 1.25 1.081-.719-1.546-1.576-2.959-3.235-3.655zm5.642-.325c.75.832 1.687 1.295 2.818 1.371l-2.818-1.371zm2.878 1.393c.759.881 1.784 1.219 2.88 1.412-.751-.886-1.743-1.294-2.88-1.412zm131.312 12.403c-7.146-1.053-14.324-1.609-21.552-1.206-.702.039-1.399.189-2.097.302.711.067 1.421.149 2.134.191a8794.6 8794.6 0 0021.162 1.212c.551.031 1.107-.027 1.661-.054-.433-.165-.859-.379-1.308-.445zm18.115 2.911c-.646-.19-1.281-.456-1.94-.559a700.133 700.133 0 00-10.875-1.62c-.595-.083-1.213-.007-1.824.018.773.184 1.542.395 2.323.529 3.066.527 6.133 1.047 9.208 1.52 1.012.155 2.047.158 3.072.231l1.3.132-1.264-.251zm19.239 4.771c-4.24-.833-8.477-1.695-12.737-2.411-5.626-.945-11.275-1.753-16.91-2.639-11.909-1.873-23.916-2.189-35.936-2.24-11.082-.048-22.077 1.076-33.05 2.512-2.733.357-5.509.384-8.265.575-.673.047-1.342.138-2.013.21 2.134.79 4.381.766 6.597.793 8.037.096 16.074.11 24.11.176 5.79.048 11.579.146 17.369.189 4.838.037 9.678.076 14.516.029 9.966-.097 19.843.977 29.725 2.065 5.411.595 10.834 1.071 16.256 1.556.796.071 1.613-.079 2.422-.144-.692-.236-1.373-.532-2.084-.671zm31.719 7.308l.091.004.088-.204-.315-.09.136.29zm-2.599-1.147c-9.212-1.972-18.46-3.628-27.911-4.074-5.426-.256-10.848-.844-16.239-1.541-11.747-1.518-23.5-2.725-35.374-2.336-3.363.11-6.734-.069-10.102-.097-10.534-.086-21.068-.166-31.602-.238-.478-.003-.956.076-1.434.127.699.206 1.389.496 2.102.574 7.129.776 14.262 1.514 21.395 2.259.516.054 1.039.047 1.551.124 11.304 1.698 22.74 1.764 34.101 2.747 9.047.783 18.111 1.117 27.174 1.534 3.625.166 7.243.497 10.859.802.416.035.824.167 1.232.305.704.03 1.409.05 2.114.079a4.65 4.65 0 01.995.02c.073.011.146.016.219.025 7.008.278 14.018.507 21.027.752.742-.088 1.484-.168 2.225-.25-.775-.282-1.533-.641-2.332-.812zm-116.096 3.389c17.097 5.496 34.554 8.942 52.582 9.082 9.59.075 19.131-.546 28.599-2.119.633-.105 1.254-.278 1.879-.427-.637-.056-1.274-.14-1.912-.148-10.115-.12-20.255.176-30.34-.431-16.319-.981-32.599-2.574-48.606-6.156-1.204-.269-2.449-.358-3.677-.52.487.254.959.554 1.475.719zm-6.619-3.019c2.464.457 4.91 1.014 7.354 1.569 10.384 2.355 20.922 3.65 31.486 4.932 14.629 1.775 29.296 2.091 43.99 2.152 8.924.037 17.765-.775 26.502-2.689 4.553-.997 9.158-1.756 13.736-2.64.636-.123 1.257-.33 1.883-.507-2.562-.378-5.049.111-7.528.668l-.012.033c-.932.328-1.869.539-2.836.151l-.001.001c-.833.178-1.659.441-2.503.521-17.596 1.671-35.234 1.407-52.862.892-6.299-.183-12.588-.947-18.862-1.63-8.682-.945-17.36-1.955-26.013-3.135-12.013-1.638-23.829-4.282-35.557-7.328-.91-.236-1.866-.301-2.806-.426 7.909 2.8 15.724 5.894 24.029 7.436zm74.075 4.27c-.287-.121-.568-.286-.865-.324l-2.461-.316c-19.325-1.476-38.618-3.699-57.807-6.293-3.871-.524-7.736-1.085-11.604-1.632a2.941 2.941 0 01-1.326-.187c-.406-.057-.813-.113-1.219-.171-1.242.231-2.475-.191-3.714-.231-1.211-.04-2.422-.072-3.633-.106.767.214 1.529.45 2.306.622a290.41 290.41 0 0032.695 5.319c10.386 1.079 20.766 2.235 31.17 3.106 4.976.416 10.001.256 15.004.342.483.008.969-.078 1.454-.129zm-94.816-12.347c4.549.718 9.107 1.381 13.663 2.055a.295.295 0 01.138-.015c2.597.345 5.198.653 7.797.982.056.005.112.014.167.021.861.109 1.721.219 2.582.326.242.005.481.035.718.09 15.404 1.911 30.838 3.577 46.285 5.103 3.233.291 6.465.601 9.692.945 1.138.109 2.274.224 3.412.332 4.763.453 9.531.862 14.297 1.284 8.595.467 17.203.414 25.831-.201 5.078-.362 10.17-.54 15.257-.792-9.824-.507-19.63-1.336-29.431-2.19-.029-.003-.038-.024-.06-.033-3.958-.191-7.916-.389-11.872-.611-6.467-.363-12.93-.8-19.396-1.183-4.139-.245-8.282-.415-12.419-.684-4.48-.291-8.958-.626-13.432-1.001-4.389-.367-8.778-.748-13.155-1.23-6.697-.737-13.4-1.447-20.069-2.392-6.162-.873-12.307-1.781-18.549-1.79-1.657-.002-3.314-.031-4.971-.049 1.168.366 2.318.845 3.515 1.033zm83.822 183.149c-.042-.592-.082-1.185-.126-1.777-.199-.47-.48-.965-.831-1.537-.217 1.59.389 2.475.957 3.314zm-.256-3.539c-.202-2.592-.457-5.178-.696-7.766l-.01.001a.405.405 0 01.007-.037c-.089-.955-.164-1.912-.257-2.866-.139-.298-.212-.605-.084-.935-.076-.763-.156-1.527-.235-2.29-.345-1.074-.535-2.159-.364-3.273-.066-.616-.136-1.232-.205-1.847a16.954 16.954 0 01-.666-5.862c-1.174-2.826-1.301-5.859-1.738-8.828-.137-.934-.15-1.89-.162-2.837a102.838 102.838 0 00-.109-3.688c-.048-.338-.093-.676-.142-1.014a.353.353 0 01.062-.267c-.475-8.158-1.801-16.222-3.276-24.246-1.59-8.642-3.842-17.151-7.376-25.261-1.962-4.504-3.853-9.039-5.827-13.538-2.578-5.875-6.209-11.14-9.788-16.424a190.723 190.723 0 00-8.085-11.06c.066.228.092.477.203.68 2.705 4.905 5.391 9.82 8.138 14.701 2.451 4.356 5.068 8.623 7.434 13.024 2.533 4.71 4.828 9.545 6.207 14.746 1.81 6.827 3.576 13.665 5.397 20.488 1.695 6.352 2.458 12.853 3.241 19.355.535 4.445 1.164 8.88 1.695 13.327.48 4.018.96 8.038 1.298 12.069.311 3.701.8 7.357 1.681 10.97.591 2.426 1.074 4.88 1.536 7.334.36 1.914 1.182 3.609 2.121 5.344zm-2.491-24.831l-.019-.175.005.132c.006.014.009.028.014.043zm-28.182-89.866c2.66 6.626 4.715 13.424 6.489 20.301a.379.379 0 01.272.277 185.223 185.223 0 014.492 18.714c.526 2.809.935 5.626 1.282 8.451.291 1.279.455 2.572.44 3.886.13 1.245.252 2.49.367 3.737.097.38.186.761.238 1.146 1.344 9.835 3.658 19.457 6.459 28.964 1.825 6.192 3.824 12.333 5.764 18.49.177.561.495 1.077.947 1.55-.078-.319-.152-.639-.235-.956-1.501-5.693-2.058-11.509-2.409-17.365-.154-2.571-.626-5.124-.961-7.685-.571-4.352-1.177-8.701-1.713-13.057-.799-6.496-1.489-13.009-3.19-19.354-1.338-4.991-2.766-9.957-4.087-14.952-.682-2.579-1.172-5.207-1.838-7.79a21.499 21.499 0 00-1.298-3.644c-1.958-4.223-3.881-8.468-6.018-12.602-1.454-2.814-3.244-5.455-5.001-8.111zm-6.266-8.782c5.601 12.353 8.664 25.386 10.627 38.738 1.879 12.777 3.943 25.525 6.566 38.179a140.66 140.66 0 006 20.832c1.752 4.675 3.573 9.334 5.614 13.889 1.546 3.451 3.488 6.726 5.513 10.027-.102-.635-.138-1.29-.321-1.901-.272-.906-.653-1.779-.98-2.668-3.473-9.459-6.476-19.071-9.197-28.764-2.211-7.878-3.931-15.875-4.846-24.021-.053-.469.012-.951.071-1.433-.096-.687-.22-1.373-.322-2.06a25.133 25.133 0 01-.416-2.667 253.864 253.864 0 00-1.765-9.836c-.817-2.149-1.228-4.413-1.635-6.662a141.83 141.83 0 00-1.744-8.15 394.414 394.414 0 00-.985-3.852v-.015c-1.187-4.425-2.538-8.805-3.989-13.156-2.073-6.215-4.622-12.241-8.605-18.063.202.791.247 1.214.414 1.583zm.942-1.186c-1.112-3.382-3.487-6.032-5.556-8.857l5.556 8.857zm-6.939-10.874c.038-.842-.33-1.454-.997-1.894l.997 1.894zm-1.348-2.405c-.385-.729-.613-1.57-1.437-1.982l1.437 1.982zm-15.689-18.013c-1.352-.753-2.7-1.514-4.05-2.272.302.345.589.708.928 1.013a684.391 684.391 0 006.37 5.662c.431.378.935.674 1.41 1.003-.87-2.382-2.437-4.17-4.658-5.406zm8.705 6.711c-.629-.574-1.167-1.246-1.796-1.819-.675-.613-1.408-1.162-2.431-1.433.368.51.703 1.048 1.11 1.526 2.02 2.375 3.94 4.852 6.572 6.625-.681-1.96-1.936-3.516-3.455-4.899zm5.15 5c-.235-.28-.535-.507-.818-.747 1.929 2.667 3.805 5.375 5.807 7.988 5.767 7.528 11.249 15.254 16.26 23.3a97.348 97.348 0 018.544 17.358c1.087 2.9 2.255 5.772 3.422 8.642 2.345 5.769 3.805 11.795 5.078 17.856.936 4.455 1.54 8.98 2.242 13.481.371 2.379.607 4.779.953 7.162.39 2.687.654 5.379.826 8.084 2.195 12.24 3.621 24.622 4.42 37.035.115-.226.23-.463.321-.713.084-.23.033-.511.031-.77-.074-11.456.113-22.92-.868-34.355-.664-7.749-2.386-15.319-4.026-22.894-1.221-5.638-2.58-11.255-4.131-16.811-2.468-8.839-6.198-17.179-10.641-25.206-1.545-2.792-3.039-5.614-4.665-8.359-4.794-8.1-10.058-15.879-16.137-23.091-2.225-2.638-4.404-5.313-6.618-7.96zm43.615 32.966l-1.835-1.689c.422.767.975 1.392 1.835 1.689zm-7.907-7.356l5.797 5.346c-1.586-2.154-3.384-4.081-5.797-5.346zm85.516 25.824c-4.007-3.021-8.328-5.547-12.801-7.799-10.423-5.248-21.052-10.021-32.497-12.631-4.623-1.054-9.329-1.748-14.005-2.566-.642-.113-1.321-.015-1.984-.005 2.71.79 5.426 1.563 8.129 2.376 3.056.918 6.154 1.73 9.141 2.837 10.273 3.808 20.66 7.34 30.552 12.102 4.508 2.171 8.979 4.415 13.474 6.613.598.293 1.233.511 1.853.762-.617-.568-1.195-1.187-1.862-1.689zm49.424 37.388a11320.663 11320.663 0 00-32.721-25.047c-1.645-1.253-3.402-2.369-5.16-3.464-11.546-7.195-23.694-13.222-36.26-18.43-.878-.364-1.755-.737-2.647-1.064-6.171-2.266-12.339-4.537-18.522-6.768-1.782-.643-3.61-1.161-5.479-1.756l-.111.244c15.218 5.955 30.127 13.009 44.29 21.125a386.786 386.786 0 0112.651 7.592c.008.005.011.012.019.017a202.913 202.913 0 0110.838 6.778c3.081 2.065 6.235 4.02 9.318 6.082 3.942 2.636 7.807 5.388 11.778 7.98 4.042 2.637 8.17 5.145 12.273 7.69.325.202.73.275 1.108.392-.451-.466-.866-.98-1.375-1.371zm17.688 11.928c-6.051-4.017-12.685-7.012-18.94-10.677-4.254-2.493-8.478-5.01-12.423-7.971-.622-.466-1.221-.969-1.875-1.385-9.542-6.076-18.748-12.676-28.449-18.506a.424.424 0 01-.411-.034c-14.802-8.802-30.096-16.879-45.814-23.935-.994-.446-1.994-.878-2.99-1.319a6.628 6.628 0 01-.356-.157 619.264 619.264 0 00-4.725-2.066 618.814 618.814 0 00-5.45-2.325.398.398 0 01-.209-.195c-3.873-1.405-7.736-2.835-11.612-4.233-.352-.128-.758-.109-1.145-.141.689.445 1.344.963 2.082 1.301 6.514 2.989 12.963 6.141 19.592 8.855 7.851 3.215 15.468 6.858 22.861 10.994a1113.15 1113.15 0 0012.018 6.634c5.695 3.097 11.109 6.634 16.534 10.171 7.085 4.618 14.286 9.059 21.472 13.52 6.892 4.279 13.734 8.652 20.776 12.674 5.841 3.337 11.929 6.247 17.937 9.289.947.479 2.037.679 3.067.994-.642-.502-1.263-1.038-1.94-1.488zm4.471 5.408c1.245.296 2.563.288 3.953.122-.413-.173-.826-.348-1.241-.516-5.296-2.15-10.751-3.804-16.289-5.206-.838-.212-1.646-.539-2.464-.83 5.051 2.874 10.379 5.08 16.041 6.43zm-13.466-6.664c.767.26 1.603.319 2.411.458-.672-.463-1.308-.999-2.032-1.354-8.783-4.314-17.165-9.304-25.384-14.598-7.627-4.913-15.373-9.642-23.066-14.453-.732-.459-1.485-.889-2.19-1.386-12.611-8.892-26.313-15.931-39.928-23.082-5.567-2.924-11.568-5.029-17.376-7.494-.201-.085-.443-.072-.674-.087.582.451 1.132.959 1.763 1.327 7.011 4.094 14.039 8.161 21.059 12.243 10.237 5.953 20.025 12.603 29.891 19.132 4.178 2.764 8.358 5.522 12.517 8.314 6.471 4.344 13.261 8.096 20.411 11.221 5.701 2.491 11.332 5.142 17.02 7.662 1.814.804 3.698 1.459 5.578 2.097zm-37.968-13.821c-4.339-3.111-8.666-6.238-13.022-9.324-2.04-1.444-4.231-2.69-6.191-4.232-6.853-5.391-14.147-10.152-21.354-15.039-1.211-.821-2.456-1.614-3.757-2.282-9.44-4.844-18.685-10.076-28.434-14.312-1.417-.615-2.886-1.114-4.331-1.667l-1.331-.706 1.246.906c.681.519 1.332 1.085 2.049 1.549 12.029 7.767 23.983 15.654 36.124 23.243 12.144 7.59 24.596 14.676 37.248 21.402.524.278 1.115.433 1.674.645l1.839.87-1.76-1.053zm2.201-.189c8.53 4.334 17.1 8.597 26.165 11.757.353.123.714.224 1.073.331-.595-.387-1.168-.82-1.805-1.12-3.593-1.695-7.167-3.436-10.817-5.001-8.611-3.691-16.672-8.334-24.405-13.585-4.284-2.91-8.625-5.735-12.96-8.568-.587-.383-1.274-.615-1.925-.902.581.556 1.125 1.164 1.772 1.629a504.135 504.135 0 007.615 5.338c2.834 1.958 5.665 3.922 8.53 5.834 2.22 1.481 4.389 3.084 6.757 4.287zm29.31 16.316l-.138-.109a311.842 311.842 0 01-16.316-5.955c-.098-.039-.197-.076-.293-.119a296.572 296.572 0 01-23.926-10.776.364.364 0 01-.104-.082c-4.348-1.913-8.605-4.014-12.688-6.468-2.29-1.376-4.6-2.724-6.948-4-5.841-3.176-11.287-6.969-16.902-10.504-8.317-5.236-16.345-10.895-24.591-16.228-.811-.525-1.75-.854-2.638-1.262.398.392.774.812 1.212 1.152 6.142 4.764 12.367 9.411 18.983 13.518 2.568 1.593 5.114 3.232 7.582 4.973 9.128 6.442 18.968 11.679 28.743 17.033 8.206 4.495 16.704 8.306 25.558 11.353 6.375 2.195 12.688 4.563 19.051 6.792 1.084.38 2.271.47 3.415.682zm-106.888-55.319c21.425 19.327 45.228 34.913 72.259 45.362 6.126 2.368 12.369 4.434 18.574 6.592.82.285 1.722.334 2.593.472-.799-.389-1.58-.822-2.407-1.136a1059.925 1059.925 0 00-10.922-4.068c-6.66-2.444-13.085-5.4-19.318-8.774-4.478-2.424-8.998-4.776-13.412-7.31a345.468 345.468 0 01-13.056-7.908c-5.828-3.696-11.684-7.363-17.333-11.318-5.718-4.004-11.197-8.347-16.788-12.531-.706-.529-1.45-1.006-2.179-1.502.654.716 1.272 1.474 1.989 2.121zm-9.399-9.895c3.704 3.253 7.79 5.975 11.969 8.581 3.951 2.463 7.839 5.028 11.717 7.605 14.007 9.312 28.073 18.532 42.868 26.576 3.937 2.14 8.052 3.955 12.07 5.95.462.229.907.492 1.348.762.637.286 1.269.581 1.906.865.89.156 1.697.488 2.397 1.047.581.253 1.163.504 1.744.755a6.713 6.713 0 012.318 1.002 382.611 382.611 0 0028.426 10.74c-1.578-.538-3.157-1.073-4.725-1.636-11.007-3.951-21.736-8.552-31.957-14.233-10.426-5.795-20.766-11.745-31.082-17.733-3.583-2.08-6.974-4.488-10.468-6.723-12.667-8.103-25.339-16.2-38.02-24.281-.684-.435-1.465-.718-2.206-1.063.559.602 1.081 1.246 1.695 1.786zm-4.637-5.816c4.638 2.825 9.459 5.282 14.386 7.574 6.086 2.83 12.053 5.914 18.081 8.868.778.381 1.607.659 2.417.975-.56-.429-1.099-.896-1.704-1.249-5.574-3.255-11.168-6.478-16.742-9.734-.575-.335-1.06-.823-1.586-1.24l.014-.007c-.786-.262-1.624-.426-2.345-.809-4.181-2.223-8.361-4.449-12.485-6.775-2.49-1.404-4.991-2.697-7.849-3.188-.91-.156-1.792-.472-2.687-.72.525 1.012 1.699.997 2.533 1.521 2.622 1.647 5.322 3.172 7.967 4.784zm-.454 9.684a114.024 114.024 0 00-4.646-4.711c-.563-.541-1.267-.936-1.918-1.387.269.384.513.793.837 1.123a1060.72 1060.72 0 007.093 7.138c.208.209.47.364.718.533-.684-.908-1.315-1.865-2.084-2.696zm24.751 28.85c-3.829-4.175-7.565-8.436-11.362-12.641-.415-.46-.945-.818-1.434-1.212.838 1.234 1.599 2.533 2.551 3.673 5.797 6.943 11.94 13.603 17.246 20.948.131.181.357.293.552.427-2.011-4.07-4.468-7.831-7.553-11.195zm7.66 11.321l1.023 1.88c-.188-1.081-.479-1.567-1.023-1.88zm4.127 5.337c-.077.847.285 1.456.903 1.92l-.903-1.92zm1.016 2.062l1.308 2.28c-.287-1.248-.599-1.905-1.308-2.28zm36.236 56.772c2.156 3.118 4.561 6.065 6.826 9.109 4.09 5.5 8.898 10.326 14.108 14.751 10.09 8.569 20.814 16.279 32.095 23.217.548.336 1.178.541 1.776.798l-.004-.006a335.345 335.345 0 01-8.902-6.392 412.558 412.558 0 01-11.988-9.289c-4.008-3.226-7.807-6.687-11.792-9.935a.294.294 0 01-.085-.367c-2.531-2.41-4.977-4.91-7.477-7.352-7.867-7.682-14.835-16.111-21.128-25.107-.214-.305-.539-.532-.829-.784 2.456 3.793 4.831 7.641 7.4 11.357zm-7.57-11.597l-.874-1.859-.379.233 1.253 1.626zm-1.708-4.25c8.009 12.014 17.108 23.133 27.621 33.07 3.508 3.316 7.11 6.533 10.651 9.814.037.034.066.077.102.112 1.762 1.382 3.538 2.745 5.294 4.117a411.36 411.36 0 0011.93 8.974c6.85 4.962 13.842 9.721 20.879 14.413 10.583 6.168 21.271 12.14 32.487 17.123.557.248 1.127.466 1.697.684a426.179 426.179 0 01-15.429-9.322 1.63 1.63 0 01-.262-.166c-1.262-.8-2.517-1.612-3.771-2.424a1.55 1.55 0 01-.396-.255c-.409-.266-.818-.53-1.226-.797a3.585 3.585 0 01-1.216-.804c-.442-.291-.883-.584-1.324-.876a3.425 3.425 0 01-1.142-.756c-.49-.327-.98-.653-1.468-.982a3.466 3.466 0 01-1.057-.718c-.442-.299-.883-.6-1.323-.9a3.436 3.436 0 01-1.311-.891c-.368-.253-.738-.505-1.106-.759a3.403 3.403 0 01-1.499-1.047l-.881-.614c-.696-.224-1.264-.641-1.731-1.208-.582-.411-1.161-.826-1.742-1.239-.999-.351-1.8-.984-2.486-1.78-.384-.277-.771-.548-1.155-.826-.308-.224-.613-.452-.921-.677-1.133-.534-2.102-1.297-2.979-2.188a502.465 502.465 0 01-4.149-3.101c-1.177-.558-2.164-1.38-3.065-2.321a492.052 492.052 0 01-4.799-3.724c-2.366-1.288-4.418-2.974-6.22-4.977-.731-.594-1.458-1.195-2.186-1.793a6.319 6.319 0 01-2.59-2.134 474.756 474.756 0 01-14.133-12.266 5.804 5.804 0 01-1.319-1.198c-.63-.574-1.253-1.156-1.879-1.734a19.827 19.827 0 01-3.911-3.66c-.921-.873-1.845-1.744-2.76-2.623a10.512 10.512 0 01-.82-.742c-.14-.144-.273-.293-.413-.437a575.021 575.021 0 01-11.284-11.242c-.149-.152-.132-.345-.041-.488-2.935-3.154-5.812-6.37-8.578-9.676a82.84 82.84 0 001.911 3.038zm12.216 74.234c.01.144.125.282.345.75.489-2.51.898-4.757 1.04-7.03.395-6.366.518-12.735-.174-19.095-.384-3.528-1.264-6.928-2.443-10.279-1.658-4.713-3.041-9.525-4.795-14.2-1.436-3.827-3.242-7.515-4.883-11.264l-.278.12a24965.6 24965.6 0 004.496 12.095c1.837 4.94 3.104 10.015 3.963 15.221 1.715 10.389 2.782 20.821 2.634 31.36-.011.774.047 1.549.095 2.322zm-1.483 11.235c.332-2.47.981-4.789.891-7.203-.268-7.136-.297-14.296-.946-21.399-.813-8.903-1.89-17.811-4.472-26.425-1.135-3.787-2.559-7.49-3.925-11.205-1.515-4.115-3.034-8.232-4.704-12.287-1.178-2.861-2.611-5.619-4.146-8.337.395.838.821 1.663 1.178 2.517 1.329 3.176 2.719 6.33 3.917 9.554.686 1.844 1.071 3.802 1.546 5.719.973 3.923 1.965 7.843 2.856 11.785.739 3.268 1.437 6.55 1.987 9.854.607 3.647 1.13 7.316 1.499 10.995.463 4.619.883 9.251 1.051 13.888.273 7.512 1.534 14.882 2.833 22.255.01.058.137.096.435.289zm-2.228 4.198c.175 1.003.397 1.997.598 2.996 1.024-1.207.898-2.502.738-3.756-.306-2.389-.64-4.78-1.108-7.141-1.411-7.112-2.102-14.289-2.406-21.528-.183-4.376-.737-8.739-1.197-13.1-.289-2.737-.727-5.459-1.069-8.191-.505-4.019-1.261-7.975-2.409-11.876a89.984 89.984 0 01-2.239-9.545c-.965-5.41-3.027-10.386-5.784-15.161.236 1.111.486 2.22.704 3.334 2.786 14.185 5.724 28.338 7.114 42.763.51 5.294 1.734 10.519 2.642 15.774a19863.97 19863.97 0 004.416 25.431zm-21.846-93.736c1.122 8.832.658 17.704.742 26.566.115 12.137 1.971 24.029 6.102 35.473 2.161 5.988 4.636 11.874 7.866 18.092-2.537-7.676-4.955-14.739-7.18-21.863-.817-2.614-1.3-5.35-1.714-8.064a356.264 356.264 0 01-1.93-14.59c-.369-3.332-.579-6.689-.695-10.041a117.685 117.685 0 00-1.285-13.874c-.459-2.975-.747-5.976-1.167-8.958-.149-1.063-.447-2.105-.684-3.155-.031.14-.072.28-.055.414zm17.078 84.187a175.242 175.242 0 00-4.209-16.891c-1.318-4.373-2.266-8.826-2.941-13.346-.583-3.912-1.378-7.792-2.002-11.698-.636-3.99-1.344-7.978-1.726-11.995-.725-7.633-1.978-15.179-3.37-22.708-.16-.867-.51-1.698-.789-2.543.085 1.315.082 2.645.295 3.939 1.096 6.632 1.767 13.299 1.899 20.022.028 1.46.126 2.926.309 4.374.808 6.4 1.529 12.816 2.549 19.184.515 3.208 1.51 6.353 2.45 9.478 1.461 4.857 3.029 9.683 4.614 14.502a93.085 93.085 0 002.921 7.682zm-16.889-94.434c.241 1.323.477 2.647.71 3.969.067.379-.171.595-.461.651.509 2.873 1.409 5.654 2.091 8.488 2.098 8.714 3.45 17.565 4.614 26.447.559 4.265 1.26 8.512 1.943 12.76.614 3.824 1.38 7.627 1.916 11.461.79 5.65 2.24 11.131 3.804 16.603 1.253 4.386 2.211 8.855 3.352 13.274.493 1.909 1.119 3.785 1.997 5.623-.064-.658-.081-1.324-.201-1.972-1.235-6.689-2.422-13.387-3.755-20.056-1.099-5.493-2.13-10.993-2.641-16.574-.983-10.738-3.027-21.302-5.123-31.864-1.409-7.1-2.818-14.19-5.125-21.069-.631-1.878-1.185-3.788-1.929-5.62-.302-.745-.747-1.433-1.192-2.121zm6.035.522l.291-.138-1.797-2.251c.518.786 1.023 1.58 1.506 2.389zm100.878 67.879c-8.09-9.484-17.115-18.024-26.912-25.714-4.197-3.295-8.785-6.118-13.322-8.957-13.702-8.573-27.736-16.58-42.01-24.172l-4.849-2.582c5.313 4.309 10.61 8.64 16.188 12.611 8.122 5.785 16.7 10.975 25.081 16.377 3.535 2.279 7.062 4.568 10.59 6.856.159.103.32.205.478.309 1.049.681 2.1 1.358 3.149 2.039a.49.49 0 01.214.302c7.26 5.184 14.31 10.632 20.785 16.797a336.015 336.015 0 009.562 8.728c3.779 3.328 7.092 7.052 10.004 11.144a59.248 59.248 0 002.411 3.179c-3.325-5.95-6.93-11.715-11.369-16.917zm-1.685 3.345c-3.967-3.435-7.686-7.153-11.581-10.673-5.93-5.359-12.099-10.409-18.616-15.005a.446.446 0 01-.14-.052 9787.781 9787.781 0 01-25.606-16.292c-4.13-2.634-8.209-5.31-12.209-8.096a3.078 3.078 0 01-.471-.332 221.9 221.9 0 01-1.363-.962l-.582-.029c-.552-.527-1.069-1.095-1.66-1.573l-.161-.129a191.837 191.837 0 01-7.108-5.422 266.567 266.567 0 01-9.331-7.856c-.64-.407-1.293-.795-1.94-1.19.336.455.624.965 1.041 1.329 2.599 2.265 5.174 4.563 7.868 6.712 2.965 2.367 6.04 4.599 9.091 6.858.677.502 1.453.871 2.184 1.301 1.043.883 2.024 1.853 3.139 2.634 8.967 6.282 18 12.47 26.931 18.802a324.491 324.491 0 0111.99 8.928c.137-.212.429-.334.68-.124a612.229 612.229 0 0142.241 38.838c-4.181-6.377-8.541-12.598-14.397-17.667zm16.923 21.561a710.957 710.957 0 00-36.719-34.57c-9.131-7.361-18.453-14.466-28.093-21.177-10.278-7.154-20.552-14.318-30.593-21.818-7.862-5.872-14.992-12.461-21.82-19.438-1.096-1.12-2.384-2.054-3.593-3.064.473.63.913 1.29 1.449 1.86 2.471 2.628 5.038 5.169 7.458 7.843 4.408 4.871 9.196 9.315 14.179 13.544a.465.465 0 01.538.048c8.091 6.462 16.129 12.989 24.232 19.433a4082.91 4082.91 0 0113.584 10.582c.101.079.186.177.281.263.85.651 1.704 1.297 2.558 1.944.254.131.502.27.725.441 11.3 8.62 22.584 17.26 33.867 25.903a36.373 36.373 0 011.991 1.647c5.676 5.019 11.364 10.026 17.008 15.082 1.693 1.517 3.257 3.177 5.043 4.632l-2.095-3.155zm-114.633-91.698l.409.875c.124-.414.024-.722-.409-.875zm118.167 98.613c-2.839-3.828-6.257-7.1-9.825-10.234-3.95-3.469-7.87-6.971-11.813-10.448-1.422-1.253-2.826-2.535-4.318-3.703a8647.33 8647.33 0 00-27.136-21.137 156.395 156.395 0 00-3.178-2.38.362.362 0 01-.372-.045c-12.1-9.13-24.236-18.248-36.007-27.806-.754-.522-1.505-1.048-2.258-1.571.614.737 1.192 1.51 1.869 2.185 7.02 6.993 14.574 13.404 21.978 19.98 5.343 4.746 10.45 9.765 15.914 14.364.664.559 1.339 1.105 2.007 1.66a.415.415 0 01.231.084c7.451 5.769 14.914 11.523 22.345 17.317 7.31 5.701 14.58 11.47 22.155 16.822 3.023 2.137 6.096 4.202 9.177 6.255-.035-.532-.451-.914-.769-1.343zm.998 2.452c-6.675-4.251-13.298-8.576-19.549-13.437-2.568-1.998-5.128-4.007-7.69-6.015a3.452 3.452 0 01-.574-.353c-8.052-6.351-16.162-12.634-24.134-19.083l-2.518-1.983a.392.392 0 01-.122-.161c-.607-.497-1.221-.985-1.826-1.484-5.988-4.939-11.472-10.478-17.368-15.534-13.643-11.698-26.461-24.262-39.346-36.759-1.857-1.801-3.759-3.555-5.639-5.331l.002-.013c-.401-.192-.686-.439-.442-.931l-.012-.006-1.1-1.154-.064.544a64.042 64.042 0 012.346 4.39c4.685 5.731 9.343 11.485 14.136 17.126 2.024 2.382 4.163 4.666 6.306 6.948 9.856 9.44 20.112 18.481 30.648 27.147 13.837 11.381 28.278 22.058 43.304 31.833 7.348 4.781 14.77 9.466 22.288 13.983l1.467.521-.113-.248z"/></svg>