<svg xmlns="http://www.w3.org/2000/svg" viewBox="0 0 512 512"><path fill="#dfb5ae" d="M354.957 136.671c-26.887-26.89-68.807-29.806-98.957-8.758-30.151-21.047-72.072-18.129-98.958 8.757-14.612 14.611-22.658 34.037-22.658 54.7 0 20.663 8.046 40.09 22.658 54.701l88.515 88.515a14.768 14.768 0 0020.886 0l88.514-88.514c14.612-14.612 22.659-34.038 22.659-54.701 0-20.663-8.048-40.09-22.659-54.7zm-20.886 88.514L256 303.256l-78.072-78.071c-18.646-18.646-18.646-48.984 0-67.628 9.322-9.322 21.568-13.983 33.815-13.983 12.246 0 24.491 4.661 33.814 13.983 5.767 5.767 15.119 5.768 20.887 0 9.032-9.032 21.04-14.006 33.815-14.006 12.773 0 24.782 4.974 33.814 14.006s14.007 21.04 14.007 33.814c-.002 12.772-4.977 24.781-14.009 33.814z"/><path fill="#dfb5ae" d="M467.692 34.462H44.308C19.876 34.462 0 54.338 0 78.769v275.692c0 24.431 19.876 44.308 44.308 44.308h145.231l54.646 72.862a14.77 14.77 0 0023.63 0l54.646-72.862h145.231c24.431 0 44.308-19.876 44.308-44.308V78.769c0-24.431-19.876-44.307-44.308-44.307zm14.77 320c0 8.144-6.625 14.769-14.769 14.769H315.077a14.768 14.768 0 00-11.815 5.908L256 438.154l-47.262-63.015a14.77 14.77 0 00-11.815-5.908H44.308c-8.144 0-14.769-6.625-14.769-14.769V78.769C29.538 70.625 36.164 64 44.308 64h423.385c8.144 0 14.769 6.625 14.769 14.769v275.693z"/></svg>